<svg xmlns="http://www.w3.org/2000/svg" viewBox="0 0 660.38 94.66"><title>logo-flexsolvers</title><g id="Capa_2" data-name="Capa 2"><g id="play"><g id="logo_blanco" data-name="logo blanco"><g id="imagotipo"><rect y="52.48" width="59.72" height="9.79" rx="3.91" style="fill:#fff"/><rect x="3.56" y="34.96" width="57.71" height="9.79" rx="3.84" transform="translate(11.36 -7) rotate(14.93)" style="fill:#fff"/><rect x="15.88" y="20.95" width="50.31" height="9.79" rx="3.6" transform="translate(15.05 -15.1) rotate(25.4)" style="fill:#fff"/><rect x="32.32" y="9.73" width="41.2" height="9.79" rx="3.28" transform="translate(18.24 -27.94) rotate(35.38)" style="fill:#fff"/><rect x="32.16" y="65.21" width="27.56" height="27.09" rx="4.41" style="fill:#fff"/><rect x="2.55" y="65.86" width="27.56" height="15.01" rx="3.29" style="fill:#fff"/><rect x="2.55" y="84.14" width="27.56" height="7.83" rx="2.37" style="fill:#fff"/></g><g id="flexsolvers"><path d="M88.13,50.84v2.47H115V69.05H88.13V93.73H68.33V51.15c0-19.65,12.5-30.86,33.9-30.86,8.1,0,15.5,1.65,20.6,4.73L117,40.66a26.29,26.29,0,0,0-13.3-3.5C93.73,37.16,88.13,41.58,88.13,50.84Z" style="fill:#fff"/><path d="M130,74.19V17.41h19V73.16c0,4.22,2.2,6.38,5.9,6.38a10.31,10.31,0,0,0,4.3-1l.8,14.71a27.25,27.25,0,0,1-8.9,1.44C138,94.66,130,87.56,130,74.19Z" style="fill:#fff"/><path d="M207.32,74.91l9.9,10.7c-5.1,6-12.7,9-23,9-19.3,0-31.8-12.24-31.8-28.9s12.8-28.7,30-28.7c15.6,0,28.7,10.18,28.8,28.39l-38.7,7.61c2.1,4.52,6.3,6.68,12.3,6.68A17.1,17.1,0,0,0,207.32,74.91ZM181,63.08l22-4.42a10.42,10.42,0,0,0-10.5-7.72C186,50.94,181.62,55.16,181,63.08Z" style="fill:#fff"/><path d="M262.92,93.73l-9.7-14.6-10.4,14.6h-20.6l20.6-27.87L222.82,38h21.4l9.6,14.09,10-14.09h20.09l-20,27.16,20.69,28.59Z" style="fill:#fff"/><path d="M285.12,88.9l5.69-13.37c5,3.19,12.3,5.14,18.9,5.14,6.4,0,8.5-1.44,8.5-3.81,0-7.51-32,1-32-21.29,0-10.49,9.39-18.51,26.39-18.51,7.6,0,16,1.64,21.4,4.73l-5.7,13.27a31,31,0,0,0-15.6-4.12c-6.4,0-8.7,1.85-8.7,3.91,0,7.72,31.9-.62,31.9,21.5,0,10.29-9.2,18.31-26.8,18.31C299.91,94.66,290.42,92.29,285.12,88.9Z" style="fill:#fff"/><path d="M340.71,65.76c0-16.77,12.9-28.7,30.6-28.7,17.9,0,30.6,11.93,30.6,28.7s-12.7,28.9-30.6,28.9C353.61,94.66,340.71,82.62,340.71,65.76Zm42,0c0-8.44-4.9-13.17-11.4-13.17s-11.4,4.73-11.4,13.17,5,13.37,11.4,13.37S382.71,74.29,382.71,65.76Z" style="fill:#fff"/><path d="M410.7,74.19V17.41h19V73.16c0,4.22,2.2,6.38,5.9,6.38a10.31,10.31,0,0,0,4.3-1l.8,14.71a27.25,27.25,0,0,1-8.9,1.44C418.7,94.66,410.7,87.56,410.7,74.19Z" style="fill:#fff"/><path d="M502.1,38,479.7,93.73H460.1L437.8,38h19.5L470.3,72,484,38Z" style="fill:#fff"/><path d="M547,74.91l9.9,10.7c-5.1,6-12.7,9-23,9-19.29,0-31.79-12.24-31.79-28.9s12.8-28.7,30-28.7c15.6,0,28.7,10.18,28.8,28.39L522.2,73.06c2.1,4.52,6.3,6.68,12.29,6.68A17.1,17.1,0,0,0,547,74.91ZM520.7,63.08l22-4.42a10.42,10.42,0,0,0-10.5-7.72C525.7,50.94,521.3,55.16,520.7,63.08Z" style="fill:#fff"/><path d="M606,37.06V54.65a32.91,32.91,0,0,0-4.3-.31c-7.7,0-13,4-13,13.78V93.73h-19V38h18.1v6.69C591.69,39.63,598,37.06,606,37.06Z" style="fill:#fff"/><path d="M609.59,88.9l5.7-13.37c5,3.19,12.3,5.14,18.9,5.14,6.4,0,8.5-1.44,8.5-3.81,0-7.51-32,1-32-21.29,0-10.49,9.4-18.51,26.4-18.51,7.6,0,16,1.64,21.4,4.73l-5.7,13.27a31,31,0,0,0-15.6-4.12c-6.4,0-8.7,1.85-8.7,3.91,0,7.72,31.89-.62,31.89,21.5,0,10.29-9.19,18.31-26.79,18.31C624.39,94.66,614.89,92.29,609.59,88.9Z" style="fill:#fff"/></g></g></g></g></svg>