<svg xmlns="http://www.w3.org/2000/svg" viewBox="0 0 1442.56 904.2"><title>portada_2</title><g id="Capa_2" data-name="Capa 2"><g id="Layer_1" data-name="Layer 1"><path d="M1331.24,901c132.46-67.36,141.12-394-115.07-470.4S878,76.91,567.26,58.76c-96.45-5.63-321.91,35.66-405.07,280.08-82.37,242,12.87,549.48,74.34,562.14Z" style="fill:#69c5cc"/><path d="M161.13,185.11a1.93,1.93,0,0,0-2,.4c-2.58,2.44-8.69,4.17-11.9,4.68l-10.78-13c1.09-3.06,3.91-8.75,6.78-10.84a1.89,1.89,0,0,0,.75-1.86l-2.23-13.07a1.92,1.92,0,0,0-1.34-1.5c-3.4-1-7.95-5.45-10-8l5.85-15.82c3.2-.59,9.54-1,12.78.44a1.9,1.9,0,0,0,2-.27l10.2-8.47a1.91,1.91,0,0,0,.63-1.91c-.82-3.45.74-9.61,1.91-12.64l16.62-2.85c2.11,2.47,5.63,7.76,6,11.29a1.89,1.89,0,0,0,1.23,1.59l12.44,4.59a1.89,1.89,0,0,0,2-.4c2.58-2.44,8.69-4.16,11.9-4.67l10.78,13c-1.09,3.06-3.9,8.76-6.77,10.84a1.91,1.91,0,0,0-.76,1.86l2.24,13.07a1.91,1.91,0,0,0,1.33,1.51c3.4,1,7.95,5.44,10,8l-5.85,15.82c-3.2.58-9.54,1-12.78-.45a1.92,1.92,0,0,0-2,.27L200,185.19a1.9,1.9,0,0,0-.63,1.9c.82,3.45-.74,9.61-1.9,12.65l-16.63,2.84c-2.11-2.47-5.63-7.76-6-11.29a1.93,1.93,0,0,0-1.23-1.58Zm30.1-20.81a16.61,16.61,0,1,0-23.4-2.17A16.62,16.62,0,0,0,191.23,164.3Zm6.81,8.19a27.27,27.27,0,1,0-38.4-3.55A27.27,27.27,0,0,0,198,172.49Z" style="fill:snow"/><path d="M1311.81,313a1.42,1.42,0,0,0-1.47.3c-1.93,1.82-6.49,3.11-8.89,3.49l-8-9.69c.82-2.29,2.92-6.54,5.06-8.1a1.41,1.41,0,0,0,.57-1.39l-1.67-9.75a1.43,1.43,0,0,0-1-1.13c-2.54-.75-5.94-4.06-7.46-5.95l4.36-11.81c2.39-.44,7.12-.75,9.54.33a1.44,1.44,0,0,0,1.49-.2l7.62-6.33a1.44,1.44,0,0,0,.47-1.42c-.62-2.58.55-7.18,1.42-9.44l12.42-2.13c1.57,1.85,4.2,5.8,4.48,8.43a1.39,1.39,0,0,0,.92,1.18l9.28,3.44a1.44,1.44,0,0,0,1.47-.3c1.93-1.83,6.49-3.11,8.89-3.49l8,9.69c-.81,2.28-2.92,6.53-5.06,8.09a1.43,1.43,0,0,0-.57,1.39l1.68,9.76a1.41,1.41,0,0,0,1,1.12c2.54.76,5.94,4.07,7.47,5.95l-4.37,11.82c-2.39.44-7.12.74-9.54-.34a1.42,1.42,0,0,0-1.49.21l-7.61,6.33a1.42,1.42,0,0,0-.48,1.42c.62,2.57-.55,7.17-1.42,9.44l-12.41,2.12c-1.58-1.84-4.21-5.79-4.49-8.43a1.41,1.41,0,0,0-.92-1.18Zm22.47-15.55a12.4,12.4,0,1,0-17.47-1.61A12.39,12.39,0,0,0,1334.28,297.48Zm5.09,6.12a20.36,20.36,0,1,0-28.68-2.65A20.36,20.36,0,0,0,1339.37,303.6Z" style="fill:#49a1ad"/><path d="M152.89,591.28a2.2,2.2,0,0,0-2.3-.18C147,593,139.7,592.94,136,592.49l-7.78-17.69c2.17-3,7.07-8.41,10.89-9.8a2.19,2.19,0,0,0,1.42-1.81l1.66-15.1a2.18,2.18,0,0,0-1-2.08c-3.43-2.19-7-8.51-8.5-11.93l11.44-15.58c3.7.36,10.81,1.91,13.93,4.52a2.2,2.2,0,0,0,2.28.33l13.9-6.11a2.17,2.17,0,0,0,1.3-1.9c.19-4.06,3.85-10.35,6.09-13.33l19.21,2.12c1.54,3.39,3.75,10.32,3,14.33a2.18,2.18,0,0,0,.85,2.13l12.25,9a2.16,2.16,0,0,0,2.29.17c3.61-1.87,10.89-1.84,14.59-1.39l7.77,17.7c-2.16,3-7.06,8.41-10.88,9.8a2.18,2.18,0,0,0-1.42,1.81l-1.66,15.1a2.17,2.17,0,0,0,1,2.07c3.43,2.19,7,8.51,8.49,11.94l-11.43,15.58c-3.7-.36-10.82-1.92-13.93-4.53a2.18,2.18,0,0,0-2.28-.32l-13.91,6.11a2.2,2.2,0,0,0-1.3,1.9c-.18,4.06-3.85,10.35-6.08,13.32L169,616.73c-1.54-3.39-3.76-10.33-3-14.33a2.17,2.17,0,0,0-.86-2.13Zm39.72-13.43a19,19,0,1,0-25.09-9.77A19,19,0,0,0,192.61,577.85ZM197.52,589a31.24,31.24,0,1,0-41.17-16A31.25,31.25,0,0,0,197.52,589Z" style="fill:#49a1ad"/><path d="M1264.57,233.3a2.18,2.18,0,0,0-2.29-.18c-3.61,1.88-10.89,1.84-14.59,1.39l-7.77-17.69c2.16-3,7.06-8.41,10.88-9.8a2.21,2.21,0,0,0,1.43-1.81l1.66-15.1a2.19,2.19,0,0,0-1-2.08c-3.42-2.18-7-8.5-8.49-11.93l11.43-15.58c3.71.36,10.82,1.91,13.93,4.53a2.18,2.18,0,0,0,2.28.32l13.91-6.11a2.18,2.18,0,0,0,1.3-1.9c.18-4.06,3.85-10.35,6.08-13.32l19.22,2.11c1.53,3.39,3.75,10.33,3,14.33a2.18,2.18,0,0,0,.86,2.13l12.24,9a2.2,2.2,0,0,0,2.3.18c3.61-1.87,10.89-1.84,14.58-1.39l7.78,17.69c-2.17,3-7.07,8.41-10.89,9.8a2.19,2.19,0,0,0-1.42,1.81l-1.66,15.1a2.2,2.2,0,0,0,1,2.08c3.43,2.19,7,8.51,8.5,11.93l-11.44,15.58c-3.7-.36-10.81-1.91-13.93-4.52a2.16,2.16,0,0,0-2.27-.33l-13.91,6.11a2.17,2.17,0,0,0-1.3,1.9c-.18,4.06-3.85,10.35-6.09,13.32l-19.21-2.11c-1.54-3.39-3.75-10.32-3-14.33a2.16,2.16,0,0,0-.85-2.13Zm39.72-13.42a19,19,0,1,0-25.08-9.77A19,19,0,0,0,1304.29,219.88Zm4.91,11.17A31.24,31.24,0,1,0,1268,215,31.23,31.23,0,0,0,1309.2,231.05Z" style="fill:snow"/><path d="M64.12,661.69a2.23,2.23,0,0,0-1.73-1.58c-4.06-.77-9.87-5.37-12.55-8.05L54.73,633c3.64-1.06,11-2.29,14.88-1a2.22,2.22,0,0,0,2.27-.55L82.7,620.38a2.21,2.21,0,0,0,.51-2.28c-1.37-3.91-.29-11.24.7-14.9l19-5.29c2.74,2.62,7.46,8.33,8.31,12.38a2.22,2.22,0,0,0,1.62,1.69l15,3.84a2.21,2.21,0,0,0,2.23-.7c2.7-3.14,9.59-5.87,13.25-6.85L157.31,622c-.9,3.68-3.48,10.63-6.56,13.39a2.23,2.23,0,0,0-.66,2.25l4.16,14.89a2.23,2.23,0,0,0,1.73,1.59c4.07.76,9.88,5.36,12.55,8.05l-4.89,19.06c-3.63,1.06-10.94,2.29-14.88,1a2.22,2.22,0,0,0-2.27.56l-10.82,11a2.22,2.22,0,0,0-.51,2.29c1.37,3.9.29,11.24-.69,14.9l-19,5.29c-2.74-2.62-7.47-8.33-8.32-12.38a2.2,2.2,0,0,0-1.62-1.69l-15-3.85a2.22,2.22,0,0,0-2.23.71c-2.7,3.13-9.59,5.87-13.25,6.84L61.06,692.23c.9-3.68,3.48-10.63,6.57-13.39a2.24,2.24,0,0,0,.65-2.25Zm40.25,14.21a19.38,19.38,0,1,0-14-23.58A19.38,19.38,0,0,0,104.37,675.9Zm-3.09,12a31.8,31.8,0,1,0-22.9-38.71A31.8,31.8,0,0,0,101.28,687.94Z" style="fill:snow"/><path d="M254.29,795.61a4.14,4.14,0,0,0-3.52,2.62c-2.84,7.23-13.34,16.34-19.22,20.33L198.13,802.9c-.69-7.08-.41-21,3.33-27.78a4.15,4.15,0,0,0-.23-4.38l-16.59-23.8a4.16,4.16,0,0,0-4-1.73c-7.67,1.16-20.81-3.39-27.21-6.48L150.25,702c5.78-4.14,18-10.85,25.72-11a4.16,4.16,0,0,0,3.68-2.39L192,662.29a4.18,4.18,0,0,0-.51-4.36c-4.85-6.07-7.48-19.72-8-26.81L213.73,610c6.47,2.94,18.36,10.13,22.38,16.77a4.18,4.18,0,0,0,3.92,2l28.9-2.47a4.18,4.18,0,0,0,3.52-2.63c2.83-7.23,13.34-16.33,19.22-20.33L325.08,619c.69,7.07.42,21-3.33,27.77a4.17,4.17,0,0,0,.24,4.39L338.58,675a4.16,4.16,0,0,0,4,1.73c7.68-1.16,20.82,3.38,27.22,6.48L373,720c-5.78,4.13-18,10.84-25.72,11a4.15,4.15,0,0,0-3.68,2.4l-12.32,26.26a4.17,4.17,0,0,0,.52,4.37c4.84,6.06,7.48,19.71,8,26.8L309.49,811.9C303,809,291.12,801.77,287.1,795.13a4.15,4.15,0,0,0-3.91-2Zm40.23-69.23a36.35,36.35,0,1,0-48.34,17.49A36.34,36.34,0,0,0,294.52,726.38Zm21.11,9.9A59.66,59.66,0,1,0,236.29,765,59.66,59.66,0,0,0,315.63,736.28Z" style="fill:#ef9079"/><path d="M752.34,870.85,320.2,871c-14.42,0-26.58-7.5-28.31-17.48L208,370c-1.39-8,7.84-15,19.44-14.75l419.79,10.67c9.27.24,16.93,5.13,18.06,11.55Z" style="fill:#352e73"/><path d="M250.14,369.76l379.32,9.64c9.28.23,16.94,5.13,18.07,11.55l82.18,466-417,.14-82-472.55C229.31,376.47,238.54,369.47,250.14,369.76Z" style="fill:#7271b3"/><polygon points="256.93 208.31 317.77 857.05 741.3 857.05 686.18 216.52 256.93 208.31" style="fill:#ccd7ec"/><polygon points="686.18 216.52 256.93 208.31 261.72 259.38 689.87 259.38 686.18 216.52" style="fill:#49a1ad;stroke:#000;stroke-miterlimit:10;stroke-width:1.0395050048828125px"/><polygon points="689.87 259.38 261.72 259.38 265.86 303.54 693.67 303.54 689.87 259.38" style="fill:#e8eeeb"/><polygon points="441.49 336.73 469.08 579.07 694.9 578.98 669.6 336.73 441.49 336.73" style="fill:#fff"/><path d="M416.71,366.51H293.11a2.21,2.21,0,1,1,0-4.42h123.6a2.21,2.21,0,1,1,0,4.42Z" style="fill:#f3ffff"/><path d="M424.27,398.11H293.11a2.21,2.21,0,1,1,0-4.42H424.27a2.21,2.21,0,1,1,0,4.42Z" style="fill:#f3ffff"/><path d="M426.15,429.76H297.26a2.21,2.21,0,1,1,0-4.42H426.15a2.21,2.21,0,1,1,0,4.42Z" style="fill:#f3ffff"/><path d="M429.54,464.9H298.77a2.21,2.21,0,1,1,0-4.42H429.54a2.21,2.21,0,1,1,0,4.42Z" style="fill:#f3ffff"/><path d="M689.87,618.68H348.14a2.21,2.21,0,1,1,0-4.42H689.87a2.21,2.21,0,1,1,0,4.42Z" style="fill:#f3ffff"/><path d="M689.87,654.48H351.15a2.21,2.21,0,1,1,0-4.42H689.87a2.21,2.21,0,1,1,0,4.42Z" style="fill:#f3ffff"/><path d="M608.56,228.35V251h26.76V228.35Zm22.22,18.8H613.1v-15h17.68Z" style="fill:#f3ffff"/><path d="M656.71,230.54s4.75,7.09,5.5,8.32h.14c.74-1.32,5.4-8.32,5.4-8.32h4.42l-7.68,10.64,7.91,11.37h-4.65s-4.94-7.46-5.73-8.78h-.09c-.75,1.32-5.64,8.78-5.64,8.78h-4.52l8-11.23-7.63-10.78Z" style="fill:#f3ffff"/><path d="M1438.49,904.2H186.29a3.67,3.67,0,1,1,0-7.3h1252.2a3.67,3.67,0,1,1,0,7.3Z" style="fill:#e8eeeb"/><path d="M1153.88,897.51H561.68c-16.91,0-30.62-11.92-30.62-26.63v-.26h653.75C1184.81,885.47,1171,897.51,1153.88,897.51Z" style="fill:#2d2861"/><path d="M861.55,897.51H343a26.73,26.73,0,0,1-26.82-26.63v-.26H888.63A27,27,0,0,1,861.55,897.51Z" style="fill:#7271b3"/><rect x="92.83" y="345.63" width="73.2" height="73.2" rx="15.75" style="fill:#ef9079"/><path d="M155.34,380.3a25.08,25.08,0,1,1-25.08-25.08A25.08,25.08,0,0,1,155.34,380.3Z" style="fill:#fff"/><path d="M129.19,367.13l2.24,15.06a2,2,0,1,1-4,.59,2.35,2.35,0,0,1,0-.53Z" style="fill:#ef9079"/><path d="M129.34,380.89l17.73,1.5-17.68,2a1.75,1.75,0,0,1-.39-3.47Z" style="fill:#ef9079"/><rect x="719.48" y="105.59" width="73.2" height="73.2" rx="15.75" style="fill:#ef9079"/><rect x="730.58" y="124.13" width="52.45" height="36.13" rx="7.69" style="fill:#fff"/><line x1="741.31" y1="134.81" x2="771.62" y2="134.81" style="fill:none;stroke:#3069f4;stroke-miterlimit:10;stroke-width:1.1619222595982137px;opacity:0.47000000000000003"/><line x1="741.31" y1="142.19" x2="771.62" y2="142.19" style="fill:none;stroke:#3069f4;stroke-miterlimit:10;stroke-width:1.1619222595982137px;opacity:0.47000000000000003"/><line x1="741.31" y1="149.76" x2="771.62" y2="149.76" style="fill:none;stroke:#3069f4;stroke-miterlimit:10;stroke-width:1.1619222595982137px;opacity:0.47000000000000003"/><path d="M762.5,160.25s8.36,6.74,9.12,10.28S783,157.87,783,154.32,762.5,160.25,762.5,160.25Z" style="fill:#fff"/><rect x="922.49" y="405.38" width="73.2" height="73.2" rx="15.75" style="fill:#ef9079"/><path d="M966.64,454.51v-4.87c0-5.87-7-10.68-15.56-10.68h-5.33c-8.56,0-15.57,4.81-15.57,10.68v4.87Z" style="fill:#fff"/><circle cx="948.41" cy="427.28" r="10.16" style="fill:#fff"/><path d="M992.46,459.59v-4.87c0-5.87-7-10.68-15.56-10.68h-5.33C963,444,956,448.85,956,454.72v4.87Z" style="fill:#fff;stroke:#ef9079;stroke-miterlimit:10;stroke-width:1.3338269190824417px"/><circle cx="974.23" cy="432.36" r="10.16" style="fill:#fff"/><path d="M986.93,648c-3.92,5.75-37.22,23.94-37.22,23.94s-3.81-.79-10.17,1c-4.07,1.17-11.83.09-10.51,2.53s8.51.78,7.79,2.62-15.46,6.28-14.26,8.49,14.77-2.89,14.12-1.24-13.62,5-11.94,8.08,14.82-5.27,15.72-3.59-9,8.18-7.66,10.69,11.62-8.7,12-7.69c.2.55-3.2,7.57-1.78,8.23,1.6.74,6.78-8,12.61-14.33a18.7,18.7,0,0,1,3.87-4c11-5.41,39.81-18.67,45.34-25.11,6.78-7.88,24.26-48.56,24.26-48.56L1000.92,612S991.54,641.21,986.93,648Z" style="fill:#f7a491"/><path d="M940.32,679.55a8.9,8.9,0,0,0,2.76,2,8.59,8.59,0,0,0,7.08.29A14.93,14.93,0,0,1,940.32,679.55Z" style="fill:#f48c7f"/><path d="M1078.91,602.81s5.66,69.77,5.66,75.83-24.08,7.77-24.08,7.77l-7.36-71.59Z" style="fill:#352e73"/><path d="M1043,585.82s15.62-8.36,28.5-.69,16.38,52.69,16.38,52.69l-41.25,4.94Z" style="fill:#7271b3"/><path d="M1015.84,589.19c-1.56.54-8,5.1-11.68,12.28s-13.57,37.17-13.57,37.17l16.2,5.93Z" style="fill:#2ba14c"/><path d="M1097.37,836.51s2.67,9.48,4.78,11.6,9.14,10.33,7.41,14.4-44.48,9.9-46.1,8.28,7.39-8.49,12.49-12.7,8.77-9.38,6.63-15.66-2.14-5.66-2.14-6.28S1097.37,836.51,1097.37,836.51Z" style="fill:#f7a491"/><path d="M1063.46,870.79c-1.85-1.56,4.07-7.94,12.78-12.94a55.05,55.05,0,0,0,12.62-1.28c6.44-1.61,11.38-7.19,12.85-9,.13.18,10.49,10.16,8.47,14.94C1108.46,866.58,1065.3,872.33,1063.46,870.79Z" style="fill:#fc008b"/><path d="M1026.43,841.11s-.79,9.74.82,12.27,7.21,12.54,4.08,15.67c-2.82,2.82-42,1-43.21-.93s5.48-7.72,11.38-10.72,10.6-7.24,9.88-13.84-.85-6-.72-6.59S1026.43,841.11,1026.43,841.11Z" style="fill:#f7a491"/><path d="M983.26,869.67c-2-1.29,7-9.46,16.57-12.44a55.68,55.68,0,0,0,12.59,1.51c6.64-.17,12.68-4.54,14.51-6,.09.21,9,13.13,5,16.43C1028.82,871.76,986.36,871.64,983.26,869.67Z" style="fill:#fc008b"/><path d="M1023.57,703.28l25.29,73.26,29,67.82,24.29-6.1s-8.76-47-17-61.78c-6.23-11.18-10.58-75.31-10.58-75.31Z" style="fill:#7271b3"/><path d="M1035.72,715.61,1027,844.36h-20.71s-9-134.89-5.73-147.73,37.81-9.94,37.81-9.94Z" style="fill:#352e73"/><path d="M1015.84,589.19s26.69-8,30.79-7.48c4.5.57,15.43,6.36,15.43,6.36s-.67,46.32,1.26,59.42,15.46,55,15.46,55-19,11-51.07,7.45-29.81-11.31-29.81-11.31,3-46.38,6.07-66.81S1015.84,589.19,1015.84,589.19Z" style="fill:#8cd334"/><path d="M1104.21,524.21a7.64,7.64,0,0,1-5.39,8.8c-6.8,2.3-11-21.62-14.89-26.35s-15.59-6-21.68,3.42c-3.36,5.19-4.4,7.45-4.67,8.43-.21.81.09.76.09.76l1.84,3.43s5.9-3.58,8.13,3-4.34,17.24,1.29,26.12,15.94,2.6,15.94,2.6c8.55,5.75,18.4-3,21.56-11.34S1104.21,524.21,1104.21,524.21Z" style="fill:#f09a41"/><path d="M1037.11,557.31l.93,9.62,8.59,14.78s-17,20.52-22.18,15.62c-1.17-1.1-4.12-22.82-4.12-22.82Z" style="fill:#f7a491"/><path d="M1038,566.93l1.79,3.28a62.68,62.68,0,0,1-18.47,11.47c-.6-4-1-7.17-1-7.17l16.78-17.2Z" style="fill:#f48c7f"/><path d="M1019.65,525.74a60.21,60.21,0,0,0-6.13,6.36c-9.8,13.66-1.86,40.59,3.26,42.83,7.74,3.39,17.83-1.17,29.19-8.87s15-20.2,4.55-31S1019.65,525.74,1019.65,525.74Z" style="fill:#f7a491"/><path d="M1057.36,523.33l-3.1-3c-12.14,0-21.82-7.32-35.44,0-9,4.86-5.3,11.69-5.3,11.69,33.3,0,21.29,26.25,25.37,36.69S1068.43,556.65,1057.36,523.33Z" style="fill:#f09a41"/><path d="M1034.06,552.89s.47-8.61,5.75-6.91,1.17,14.69-3.21,14.23S1034.06,552.89,1034.06,552.89Z" style="fill:#f7a491"/><path d="M1058.23,516.84s-5,3.11-7,2.85,3.1,6.31,5.81,7,1.76-1.94,2.33-2.83,2.69-.2,3.17-.86C1063.62,521.48,1060.6,517.13,1058.23,516.84Z" style="fill:#8cd334"/><path d="M1057.78,585.92s-6-.9-11.15,18.58c-5.83,22.08.45,44.94,10.1,50.73s13.63,4.68,13.63,4.68l-1.51,13.61s-28.52-6.38-32.4-30.76c-6.37-40,12.41-60.53,12.41-60.53a22.89,22.89,0,0,1,4.63,1A32.07,32.07,0,0,1,1057.78,585.92Z" style="fill:#352e73"/><path d="M1072.53,632.06v28.52c0,5-5.71,38.61-12.7,50.13s-16.47,24.37-18.44,25.11-6.22,3.43-8.43,1.23-4-1.2-6.72-2.4.37-5.15,4.24-9,4.69-4.79,4-5.43-3.77,2.94-5.43,2.39,1-6.35,5.34-8.37,11.23-6,11.87-8.1.65-1.57.65-2.12,4.87-34,4.87-40.48,1.93-27.79,1.93-27.79Z" style="fill:#f7a491"/><path d="M1059.48,586.93a15.1,15.1,0,0,1,11.71,10.9c2.39,8.09,8.7,31.1,7.59,42.32,0,0-26.87,3.5-26.87,2.4S1046,612.64,1049,600C1051.53,589,1055.12,586.39,1059.48,586.93Z" style="fill:#2ba14c"/><path d="M1020,588l-18.68,67.12h0c.83-8.76,1.73-17.14,2.63-23.22,3-20.42,11.87-42.68,11.87-42.68Z" style="fill:#352e73"/><path d="M1332.34,563.49c5.94,10.59,3.35,31.54-1.59,38.29s-16.71,8.86-16.71,8.86l-17.26,5.76s-12.41-17.61-15.85-28.43c-1.32-4.19-1.55-6.9,0-15.78,2-11.48,5-17.42,17.49-18.8C1310.58,552.05,1325.16,550.68,1332.34,563.49Z" style="fill:#2d2861"/><path d="M1277.28,591.74c.59,3.85,3.25,6.65,5.93,6.26s4.37-3.83,3.77-7.69-3.26-6.65-5.94-6.26S1276.68,587.89,1277.28,591.74Z" style="fill:#f7a491"/><path d="M1348.52,854.76c1.72,3.35,9.91,9.15,9.91,9.15-7,8.33-29.47,26-29.47,26s-2.84-2.94-1.56-5.65,7.51-19.41,4.68-24.91c-.73-1.43-6.13-12.1-10.86-18,6.31-2.12,12.41-5.17,18.28-7.9C1343.19,841.05,1348,853.65,1348.52,854.76Z" style="fill:#f7a491"/><path d="M1350,856.74s-16.5,17.57-19.69,19.44c-2.6,1.52-6,20.16-2.29,20.71s31.58-27.86,32.4-31.73S1350,856.74,1350,856.74Z" style="fill:#2d2861"/><path d="M1268.54,814.93c2,3.23,10.69,8.49,10.69,8.49-6.24,8.76-27.07,27.81-27.07,27.81s-3.09-2.76-2.06-5.53,5.76-19.83,2.46-25.14c-.86-1.38-7.2-11.68-12.44-17.29,6.11-2.51,11.92-5.93,17.53-9C1262,801.59,1267.87,813.86,1268.54,814.93Z" style="fill:#f7a491"/><path d="M1271.79,818.23s-16.32,17.44-19.5,19.32c-2.6,1.54-5.92,20.18-2.19,20.72s32.86-25.95,33.65-29.82S1271.79,818.23,1271.79,818.23Z" style="fill:#2d2861"/><path d="M1279.73,709.73s-58.11,25-62.44,43.88C1215,763.84,1244.51,818,1244.51,818l23.06-9.61s-4.81-19.89-10.87-33c-2.81-6.08-4.7-9.63-4.7-9.63,4.75-4,59.38-20.48,59.38-20.48l-9.77-32.33Z" style="fill:#d6007e"/><path d="M1348.05,709.73s4.69,7.4-3.89,27.18c-5.62,13-23.41,50.89-23,51.65,12.58,21.29,29.16,52.94,29.16,52.94l-27.31,13.32c-.4.69-34.69-46.1-36-60.25-1-10.85,8.1-82.41,8.1-82.41Z" style="fill:#fc008b"/><path d="M1374.71,576.82c5.29-6.08,16.14-26.79,19.81-33.83-.11-.68-.56-4.63,2.31-10.62,2-4.24,2.28-12.66,4.7-11s-.72,9.2,1.42,8.64,9.73-15.86,11.93-14.34-5.89,15.5-4,15,7.94-14,11-11.89-8.5,15.28-6.83,16.43,8.77-7.31,11.27-5.58-10.24,11.1-9.11,10.8,9.18-2.82,9.63-1.23c.52,1.8-19.36,10.47-21.11,14.34h0c-3.21,10.35-8.83,29.19-16.78,39-9.74,12-31.17,38.64-31.17,38.64l-19.52-14.75S1368.44,584,1374.71,576.82Z" style="fill:#f7a491"/><path d="M1403.91,533.93a8.84,8.84,0,0,1,1.66,3.17,9.1,9.1,0,0,1-1,7.62A15.5,15.5,0,0,0,1403.91,533.93Z" style="fill:#f48c7f"/><path d="M1261.58,566c-3.17-7.43-7.16-30.5-8.49-38.34.31-.61,1.94-4.22,1.05-10.82-.63-4.66,1.7-12.75-1.12-11.9s-2.13,9-4,7.77-4.41-18.1-7-17.34.86,16.57-.81,15.5-3.26-15.83-6.87-14.74,3.41,17.17,1.48,17.75-6.11-9.68-9-8.81,6.34,13.74,5.36,13.1-7.87-5.53-8.79-4.16c-1,1.55,15.22,16,15.7,20.19h0c-.11,10.85-.53,30.52,4,42.34,5.58,14.45,19.37,46.43,19.37,46.43l21.54-8S1265.34,574.85,1261.58,566Z" style="fill:#f7a491"/><path d="M1246.92,517.19a8.8,8.8,0,0,0-2.55,2.5,9.11,9.11,0,0,0-1.39,7.56A15.48,15.48,0,0,1,1246.92,517.19Z" style="fill:#f48c7f"/><path d="M1348,602.3s20.86,18.26,20.71,18.7c-1.11,3.24-22.55,17.52-22.55,26.19,0,9.82,6.81,76.46,6.81,76.46a99.86,99.86,0,0,1-41.8,2.73,103.1,103.1,0,0,1-38.81-14.18s1.41-18.13,1.41-34.88a200.81,200.81,0,0,0-2.55-31.17l-17.53-39.34,21.8-12s15.11,29,19.1,29a190,190,0,0,0,24.25-2Z" style="fill:#f09a41"/><path d="M1296.21,609.17s2.58,18.25-2.89,23.19c-5.78,5.22,20.91,3.78,22.79-4.83,1-4.65-2.63-25.2-2.63-25.2Z" style="fill:#f7a491"/><path d="M1313.48,602.33l-17.27,6.84a75.32,75.32,0,0,1,.61,9.59c4.22.61,9-.28,14.21-3.23a28.82,28.82,0,0,0,4.09-2.8C1314.35,607.2,1313.48,602.33,1313.48,602.33Z" style="fill:#f48c7f"/><path d="M1306.92,563.74a23.77,23.77,0,0,1,13,9.81c4.79,7.71,7.44,30-9.68,39.75s-29.58-5.35-29.26-19.64S1287.8,561.12,1306.92,563.74Z" style="fill:#f7a491"/><path d="M1306.92,563.74a23.77,23.77,0,0,1,13,9.81c4.79,7.71,7.44,30-9.68,39.75s-29.58-5.35-29.26-19.64S1287.8,561.12,1306.92,563.74Z" style="fill:#f7a491"/><path d="M1319.39,593.4c-1.35,3.67-.38,7.36,2.17,8.25s5.72-1.37,7.07-5,.39-7.37-2.17-8.25S1320.75,589.73,1319.39,593.4Z" style="fill:#f7a491"/><rect x="752.34" y="284.01" width="451.07" height="48.91" rx="5.24" style="fill:#fff"/><path d="M1097.56,326.44H781.18a10.53,10.53,0,0,1-10.51-10.52V300.84a10.53,10.53,0,0,1,10.51-10.52h316.38a10.53,10.53,0,0,1,10.52,10.52v15.08A10.53,10.53,0,0,1,1097.56,326.44ZM781.18,293.23a7.61,7.61,0,0,0-7.6,7.61v15.08a7.61,7.61,0,0,0,7.6,7.61h316.38a7.61,7.61,0,0,0,7.61-7.61V300.84a7.61,7.61,0,0,0-7.61-7.61Z" style="fill:#7271b3"/><path d="M1152.94,313.27a12.67,12.67,0,1,1,12.67-12.66A12.68,12.68,0,0,1,1152.94,313.27Zm0-22.42a9.76,9.76,0,1,0,9.76,9.76A9.76,9.76,0,0,0,1152.94,290.85Z" style="fill:#7271b3"/><path d="M1169.53,325.85l-11.33-15.19a1.47,1.47,0,0,1,.3-2,1.45,1.45,0,0,1,1.94.19l.1.11,12.74,14.14a2.34,2.34,0,0,1-3.48,3.14l-.13-.17Z" style="fill:#7271b3"/><path d="M426.34,585.23s12,3,16,18,5.91,50,9.3,53.7,25.57,22.68,29.57,22,13-11.9,15.74-11.9,2.44,2.72,1,4.22-3.08,3.23-2.26,4.12l.83.89s9.49-2.83,11.58-1.51-2.88,8.17-3.13,10.65-6.39,7.43-7.48,8.6-4.93,2.46-18.32.49a63.71,63.71,0,0,1-41.83-25c-12.09-16.12-16.95-65.57-16.68-70.62C421.35,586.06,426.34,585.23,426.34,585.23Z" style="fill:#f48c7f"/><path d="M444.79,601.1a21.09,21.09,0,0,0-18-15.87s-6.82.83-7.57,13.62c-.18,2.94,1.45,22.42,5.48,40.11,6.46-4.84,17.79-9,25.84-10.37A234.28,234.28,0,0,0,444.79,601.1Z" style="fill:#d6007e"/><path d="M473.11,813.86s8,32.78,14,37.93,25.54,15,20.42,16.06-42.95,1.94-41.91-4.37,2.12-10.34,2.12-10.34l-10-23.42Z" style="fill:#f7a491"/><path d="M510.11,869.19c-9.23.92-36.18,1.89-44,.89,0,0-1.47-.29-.43-6.6.25-1.55.51-3,.75-4.2,7.12,1.87,22.63-2.11,28.77-2.92,6.67,3.19,14.2,8,16.62,8.36C515.3,865.3,515.3,868.67,510.11,869.19Z" style="fill:#fc008b"/><path d="M386.12,836.93s1.49,13.28,1.49,16.93-3.4,14-1.82,15.54,46.64,1.38,46.64-.1-8-6-18.78-9.08-8.15-16.07-9.52-23.29Z" style="fill:#f7a491"/><path d="M433.16,870.5c0-3.47-7.39-6.73-17-9.65-10.2,3.44-24.37.6-29.68-.42-1.62,4.25-2.29,10-1.15,10.32C386.72,871.1,433.16,871.13,433.16,870.5Z" style="fill:#fc008b"/><polygon points="447.15 676.82 485.51 835.19 461.23 840.63 403.32 685.9 447.15 676.82" style="fill:#2ba14c"/><path d="M438.19,684.3l-12.51,36.8L409.86,842.91l-24.14-1.57S377.56,720,380.37,686.88Z" style="fill:#8cd334"/><path d="M456.5,684.9c-5.14-19.45-11.87-45.78-13.71-57.17-3.09-19.12-13.5-42.45-13.5-42.45s-11.44-1.81-20-1.34c-16.45.92-40,5.67-40,5.67l8.09,106.76C403.42,695.79,431.89,693.53,456.5,684.9Z" style="fill:#fc008b"/><polygon points="454.79 659.92 438.24 701.72 439.95 703.63 493.93 697.05 509.13 663.92 507.42 662.22 454.79 659.92" style="fill:#7271b3"/><polygon points="456.5 661.62 439.95 703.42 495.64 698.76 509.13 663.92 456.5 661.62" style="fill:#2d2861"/><path d="M369.38,589.61s13,3,17.19,18,6.36,50,10,53.7,27.55,22.68,31.86,22,14-11.91,17-11.91,2.63,2.72,1.13,4.22-3.33,3.23-2.44,4.12.59.82.89.89c4.39,1.15,13.35-3.51,15.6-2.2s-2.15,4.41-2.15,6.66.55,2.2.28,4.68-.89,4.45-2.06,5.62-15.93,5.44-30.36,3.47-32.06-8.9-45.08-25-18.27-65.57-18-70.62C364,590.43,369.38,589.61,369.38,589.61Z" style="fill:#f7a491"/><path d="M508.18,639a3.13,3.13,0,1,1-3.13-3.13A3.13,3.13,0,0,1,508.18,639Z" style="fill:#7271b3"/><rect x="489.17" y="650.69" width="23.39" height="1.84" transform="translate(-276.35 918.81) rotate(-71.42)" style="fill:#7271b3"/><path d="M521,643.06h-.12a.55.55,0,0,1-.42-.66,15.85,15.85,0,0,0-12.58-19,.55.55,0,0,1-.44-.64.56.56,0,0,1,.64-.45A16.92,16.92,0,0,1,522,639a17.34,17.34,0,0,1-.4,3.67A.55.55,0,0,1,521,643.06Z" style="fill:#fcc13f"/><path d="M528.14,644.64H528a.55.55,0,0,1-.42-.66,23.14,23.14,0,0,0-18.36-27.72.55.55,0,0,1-.44-.64.56.56,0,0,1,.64-.45,24.18,24.18,0,0,1,19.23,29.05A.53.53,0,0,1,528.14,644.64Z" style="fill:#fcc13f"/><path d="M534.42,646h-.12a.55.55,0,0,1-.41-.66,29.89,29.89,0,0,0,.69-6.41,29.51,29.51,0,0,0-24.17-29.05.55.55,0,0,1,.2-1.08A30.64,30.64,0,0,1,535,645.61.55.55,0,0,1,534.42,646Z" style="fill:#fcc13f"/><path d="M387.38,605.47a21.08,21.08,0,0,0-18-15.86s-6.82.82-7.57,13.61c-.17,2.94,1.46,22.42,5.48,40.11,6.47-4.84,17.79-8.94,25.84-10.37A233.11,233.11,0,0,0,387.38,605.47Z" style="fill:#d6007e"/><path d="M372.24,532.57c-.18,9.94,3.09,14.26,9.28,22.06s17.13,17,17.13,17L429.39,552s1.14-2.42-1.31-14.68C417.93,486.56,372.38,524.87,372.24,532.57Z" style="fill:#2d2861"/><path d="M380,553.45c1.24,3.89,4.38,6.36,7,5.52s3.75-4.67,2.51-8.56-4.38-6.36-7-5.52S378.77,549.56,380,553.45Z" style="fill:#f7a491"/><path d="M422.23,546.33c-1.16,3.91,0,7.72,2.69,8.51s5.73-1.76,6.89-5.67,0-7.73-2.69-8.51S423.39,542.42,422.23,546.33Z" style="fill:#f7a491"/><path d="M394.28,565.5l-1.15,20.79s2.52,7,13.92,7.06c8.41,0,7.44-18.75,7.44-18.75l-.67-9.1Z" style="fill:#f7a491"/><path d="M414.13,581.16h.17a48.57,48.57,0,0,0,.19-6.56l-.67-9.1H394.28l-.17,3.12C396.56,572.8,403.77,581.16,414.13,581.16Z" style="fill:#f27a6a"/><path d="M402.61,518c-6.58,1-11.4,5.63-14.9,11.33-6.93,11.28-1.29,27.89.61,31.7s9.52,13.6,20.8,13.6,18-13.15,19-23.21c1.27-13.47-1.17-27.44-14-32.13A24.15,24.15,0,0,0,402.61,518Z" style="fill:#f7a491"/><path d="M384.42,544.82s3.2-18,13.4-22,26.9,4.33,30.26,14.55c0,0-3.2-21.1-8.75-26.65s-16.8-6.16-16.8-6.16l3.72,3.69a35.35,35.35,0,0,0-10.11-1.34c-6.05,0-7.18,1.46-7.18,1.46s4.15.67,4.15,2-11,1.8-11,1.8-.88,9-4.44,12.51S384.42,544.82,384.42,544.82Z" style="fill:#2d2861"/><path d="M505.05,674.26s-11.69,10-9.48,12.17c.7.69,5.89-3.91,5.89-3.91s-5.18,6-4.41,8.33.43,3.15.43,3.15l5.73-6.19,2.67-13.15Z" style="fill:#f48c7f"/><path d="M680.25,619.56h42.48a11.93,11.93,0,0,1,11.93,11.93v15a0,0,0,0,1,0,0H668.32a0,0,0,0,1,0,0v-15A11.93,11.93,0,0,1,680.25,619.56Z" style="fill:#ececec;stroke:#000;stroke-miterlimit:10;stroke-width:1.1619222595982137px"/><path d="M689.36,651.43c0,11-8,19.89-17.8,19.89s-17.8-8.9-17.8-19.89,8-19.89,17.8-19.89S689.36,640.45,689.36,651.43Z" style="fill:#ab652b;stroke:#000;stroke-miterlimit:10;stroke-width:1.1619222595982137px"/><path d="M759.74,744.55c0,11-8,19.89-17.8,19.89s-17.8-8.9-17.8-19.89,8-19.89,17.8-19.89S759.74,733.57,759.74,744.55Z" style="fill:#ab652b;stroke:#000;stroke-miterlimit:10;stroke-width:1.1619222595982137px"/><path d="M758.93,844.91c0,11-8,19.89-17.8,19.89s-17.8-8.91-17.8-19.89,8-19.89,17.8-19.89S758.93,833.92,758.93,844.91Z" style="fill:#2d2861"/><path d="M749,651.43c0,11-8,19.89-17.8,19.89s-17.79-8.9-17.79-19.89,8-19.89,17.79-19.89S749,640.45,749,651.43Z" style="fill:#ab652b;stroke:#000;stroke-miterlimit:10;stroke-width:1.1619222595982137px"/><polygon points="716.64 662.89 685.71 663.46 681.8 619.56 724.14 619.56 716.64 662.89" style="fill:#ececec;stroke:#000;stroke-miterlimit:10;stroke-width:1.1619222595982137px"/><polygon points="722.04 629.23 701.59 636.55 682.91 622.24 685.96 598.89 707.68 589.86 729.99 607.81 722.04 629.23" style="fill:#ab652b;stroke:#000;stroke-miterlimit:10;stroke-width:1.1619222595982137px"/><path d="M753.49,738.58a228.51,228.51,0,0,1-30.85-.53c-4.72-.39-8.25-5-7.8-10.28Q717.41,697.38,720,667c.42-5,4.22-8.67,8.68-8.52a163.37,163.37,0,0,0,18.64-.41c4.57-.36,8.59,3.39,9,8.5l5.22,61.72C762,733.66,758.32,738.34,753.49,738.58Z" style="fill:#ececec;stroke:#000;stroke-miterlimit:10;stroke-width:2.079010009765625px"/><path d="M778.88,837.22,765.34,766.9c-1.12-5.83-5.73-10-11.07-10H735.44c-5.33,0-9.94,4.16-11.06,10l-13.55,70.32h0v24.17a9.12,9.12,0,0,0,7.74,9.23c.65.1,9.92-4.27,9.92-9.43V849c0-6.49,4.71-11.76,10.52-11.76h26c3.9,0,7.06,3.54,7.06,7.9v25.5s6.75-2.38,6.75-6.11V837.22Z" style="fill:#49a1ad;stroke:#000;stroke-miterlimit:10;stroke-width:2.079010009765625px"/><path d="M683.94,744.78c-.16,11-8.26,19.77-18.09,19.62s-17.66-9.16-17.5-20.15,8.26-19.77,18.09-19.62S684.11,733.8,683.94,744.78Z" style="fill:#ab652b;stroke:#000;stroke-miterlimit:10;stroke-width:1.1619222595982137px"/><path d="M677.18,844.79c-.17,11-8.26,19.77-18.09,19.63s-17.67-9.17-17.5-20.16,8.26-19.77,18.08-19.62S677.34,833.81,677.18,844.79Z" style="fill:#2d2861"/><path d="M681.3,738.58a228.51,228.51,0,0,1-30.85-.53c-4.72-.39-8.25-5-7.8-10.28q2.57-30.39,5.14-60.78c.42-5,4.22-8.67,8.68-8.52a163.37,163.37,0,0,0,18.64-.41c4.57-.36,8.59,3.39,9,8.5l5.22,61.72C689.8,733.66,686.13,738.34,681.3,738.58Z" style="fill:#ececec;stroke:#000;stroke-miterlimit:10;stroke-width:2.079010009765625px"/><path d="M697.24,837.4l-12.5-70.51c-1-5.85-5.59-10.08-10.92-10.16L655,756.45c-5.33-.07-10,4-11.21,9.83L629.2,836.4h0l-.36,24.16c-.07,5,3.17,9.14,7.44,9.88a7.89,7.89,0,0,0,2,.09c4.61-.36,8.14-4.75,8.22-9.9l.18-12.21c.09-6.5,4.88-11.69,10.7-11.61l26,.39c3.9.06,7,3.64,7,8L690,870.62s6.78-2.21,6.83-5.93l.4-27.29Z" style="fill:#49a1ad;stroke:#000;stroke-miterlimit:10;stroke-width:1.0395050048828125px"/><path d="M645.65,532.34c-8.62-4.69-20.34.21-26.18,11s-3.59,23.24,5,27.93,20.34-.21,26.18-11S654.27,537,645.65,532.34Z" style="fill:#ab652b;stroke:#000;stroke-miterlimit:10;stroke-width:1.1619222595982137px"/><polygon points="808.24 611.1 785.06 563.66 755.23 585.4 771.9 627.84 808.24 611.1" style="fill:#ececec;stroke:#000;stroke-miterlimit:10;stroke-width:2.079010009765625px"/><path d="M776.69,605.69a20,20,0,1,0,28.15,1A20,20,0,0,0,776.69,605.69Z" style="fill:#ab652b;stroke:#000;stroke-miterlimit:10;stroke-width:1.1619222595982137px"/><path d="M648.77,563.16l37.4-40.27-5.41-7.59c-8.32-11.68-25.09-11.14-36.71,1.19L621.51,540.4Z" style="fill:#ececec;stroke:#000;stroke-miterlimit:10;stroke-width:2.079010009765625px"/><path d="M555.05,647.35,551.78,645a1.85,1.85,0,0,0-2.57.44c-1.46,2.1-2.84,4.25-4.12,6.44a1.84,1.84,0,0,0,.73,2.54l3.48,1.91a1.85,1.85,0,0,0,2.48-.69q1.74-2.94,3.69-5.76A1.85,1.85,0,0,0,555.05,647.35Z" style="fill:#ececec;stroke:#000;stroke-miterlimit:10;stroke-width:1.1619222595982137px"/><path d="M547.55,657.18l-1.58-.79a1.86,1.86,0,0,0-2.48.83q-2.06,4.21-3.67,8.6a1.85,1.85,0,0,0,1.16,2.37l1.67.56a1.82,1.82,0,0,0,2.31-1.11c1-2.71,2.14-5.38,3.41-8A1.84,1.84,0,0,0,547.55,657.18Z" style="fill:#ececec;stroke:#000;stroke-miterlimit:10;stroke-width:1.1619222595982137px"/><path d="M632,556.29a72.06,72.06,0,0,1-7.09-4.65,16.28,16.28,0,0,0-21.09,1.64l-33.33,33a16.31,16.31,0,0,0,.69,23.76,133.37,133.37,0,0,0,26.19,18.33A16.29,16.29,0,0,0,620,620.45q9.36-21.86,18.71-43.69A16.23,16.23,0,0,0,632,556.29Z" style="fill:#ececec;stroke:#000;stroke-miterlimit:10;stroke-width:2.079010009765625px"/><path d="M581.52,620.62l-6-4.59a13.74,13.74,0,0,0-19.26,2.56L551.38,625l25.46,19.44,6.71-8.78A10.71,10.71,0,0,0,581.52,620.62Z" style="fill:#49a1ad;stroke:#000;stroke-miterlimit:10;stroke-width:1.1619222595982137px"/><rect x="552.12" y="635.15" width="12.29" height="9.89" rx="1.84" transform="translate(-289.28 695.27) rotate(-52.63)" style="fill:#ececec;stroke:#000;stroke-miterlimit:10;stroke-width:1.1619222595982137px"/><path d="M546.39,640.43c-1.08-.78-2.17-1.55-3.26-2.32a1.85,1.85,0,0,0-2.57.44c-1.46,2.1-2.84,4.25-4.12,6.44a1.83,1.83,0,0,0,.72,2.54c1.17.63,2.33,1.26,3.49,1.91a1.85,1.85,0,0,0,2.48-.69q1.73-2.94,3.69-5.76A1.84,1.84,0,0,0,546.39,640.43Z" style="fill:#ececec;stroke:#000;stroke-miterlimit:10;stroke-width:1.1619222595982137px"/><path d="M538.9,650.26l-1.58-.79a1.84,1.84,0,0,0-2.48.83q-2.05,4.22-3.67,8.6a1.84,1.84,0,0,0,1.15,2.37l1.67.56a1.84,1.84,0,0,0,2.32-1.11c1-2.71,2.14-5.38,3.41-8A1.86,1.86,0,0,0,538.9,650.26Z" style="fill:#ececec;stroke:#000;stroke-miterlimit:10;stroke-width:1.1619222595982137px"/><path d="M555.81,630.17l-4.93-3.76a1.85,1.85,0,0,0-2.59.34l-5.22,6.84a1.84,1.84,0,0,0,.35,2.58l4.93,3.77a1.85,1.85,0,0,0,2.58-.35l5.22-6.84A1.84,1.84,0,0,0,555.81,630.17Z" style="fill:#ececec;stroke:#000;stroke-miterlimit:10;stroke-width:1.1619222595982137px"/><path d="M563.65,654.37l-3.26-2.31a1.84,1.84,0,0,0-2.57.44c-1.46,2.1-2.84,4.25-4.12,6.44a1.84,1.84,0,0,0,.72,2.54l3.49,1.9a1.83,1.83,0,0,0,2.48-.69q1.73-2.94,3.69-5.75A1.85,1.85,0,0,0,563.65,654.37Z" style="fill:#ececec;stroke:#000;stroke-miterlimit:10;stroke-width:1.1619222595982137px"/><path d="M556.16,664.21l-1.58-.79a1.84,1.84,0,0,0-2.48.83q-2.05,4.21-3.67,8.6a1.83,1.83,0,0,0,1.15,2.36l1.67.57a1.85,1.85,0,0,0,2.32-1.12q1.5-4.06,3.41-8A1.85,1.85,0,0,0,556.16,664.21Z" style="fill:#ececec;stroke:#000;stroke-miterlimit:10;stroke-width:1.1619222595982137px"/><rect x="560.73" y="642.17" width="12.29" height="9.89" rx="1.84" transform="translate(-291.48 704.86) rotate(-52.63)" style="fill:#ececec;stroke:#000;stroke-miterlimit:10;stroke-width:1.1619222595982137px"/><path d="M578.4,649.63l3.87,1a1.84,1.84,0,0,1,1.32,2.24q-1,3.72-2.26,7.31a1.82,1.82,0,0,1-2.4,1.08l-3.71-1.43a1.85,1.85,0,0,1-1.07-2.35q1.13-3.21,2-6.53A1.85,1.85,0,0,1,578.4,649.63Z" style="fill:#ececec;stroke:#000;stroke-miterlimit:10;stroke-width:1.1619222595982137px"/><path d="M575.72,661.71l1.63.7a1.85,1.85,0,0,1,1,2.43,90.49,90.49,0,0,1-4.2,8.35,1.84,1.84,0,0,1-2.55.65l-1.51-.92a1.84,1.84,0,0,1-.64-2.49c1.42-2.51,2.72-5.1,3.9-7.75A1.84,1.84,0,0,1,575.72,661.71Z" style="fill:#ececec;stroke:#000;stroke-miterlimit:10;stroke-width:1.1619222595982137px"/><path d="M584.27,637l.23-.32,1.78.4a1.78,1.78,0,0,1,1.36,2.11l-1.9,8.6a1.77,1.77,0,0,1-2.11,1.35L578.2,648a1.79,1.79,0,0,1-1.33-1.27Z" style="fill:#49a1ad;stroke:#000;stroke-miterlimit:10;stroke-width:1.1619222595982137px"/><path d="M737.62,619.44q22.39-27,45.86-53.19a7.83,7.83,0,0,0-1.32-11.63,295.41,295.41,0,0,0-100.54-46.1,7.82,7.82,0,0,0-9.7,7.2q-1.68,34.39-6.18,68.47c-.5,3.77,2,6.7,5.39,8.53,7,3.84,9.57,4,52.87,26.55a19.81,19.81,0,0,1,4.25,2.29A7.86,7.86,0,0,0,737.62,619.44Z" style="fill:#49a1ad;stroke:#000;stroke-miterlimit:10;stroke-width:2.079010009765625px"/><path d="M877.86,704.06c-.8,1.06-1.59,2.14-2.38,3.21a1.84,1.84,0,0,0,.38,2.58c2.06,1.51,4.18,2.94,6.34,4.27a1.84,1.84,0,0,0,2.55-.67c.66-1.16,1.32-2.3,2-3.45a1.84,1.84,0,0,0-.63-2.5c-1.93-1.19-3.82-2.47-5.67-3.81A1.83,1.83,0,0,0,877.86,704.06Z" style="fill:#ececec;stroke:#000;stroke-miterlimit:10;stroke-width:1.1619222595982137px"/><path d="M887.52,711.77l-.83,1.56a1.85,1.85,0,0,0,.78,2.5,92.85,92.85,0,0,0,8.51,3.86,1.84,1.84,0,0,0,2.39-1.1l.6-1.66a1.84,1.84,0,0,0-1.06-2.34A86.39,86.39,0,0,1,890,711,1.84,1.84,0,0,0,887.52,711.77Z" style="fill:#ececec;stroke:#000;stroke-miterlimit:10;stroke-width:1.1619222595982137px"/><path d="M792.69,622.45a73.42,73.42,0,0,1-5.5,6.45,16.32,16.32,0,0,0-1,21.15l28.46,37.25a16.28,16.28,0,0,0,23.63,2.32,133.86,133.86,0,0,0,21.49-23.68,16.32,16.32,0,0,0-5-23.53l-40.93-24.1A16.21,16.21,0,0,0,792.69,622.45Z" style="fill:#ececec;stroke:#000;stroke-miterlimit:10;stroke-width:2.079010009765625px"/><path d="M851.74,677,847,682.89a13.75,13.75,0,0,0,2.13,19.32l6.27,5,20-25-8.62-6.91A10.69,10.69,0,0,0,851.74,677Z" style="fill:#49a1ad;stroke:#000;stroke-miterlimit:10;stroke-width:1.1619222595982137px"/><path d="M867.82,694.41,864,699.26a1.85,1.85,0,0,0,.29,2.59l6.72,5.38a1.82,1.82,0,0,0,2.58-.29l3.87-4.85a1.83,1.83,0,0,0-.29-2.59l-6.71-5.38A1.85,1.85,0,0,0,867.82,694.41Z" style="fill:#ececec;stroke:#000;stroke-miterlimit:10;stroke-width:1.1619222595982137px"/><path d="M870.75,712.57c-.79,1.06-1.59,2.13-2.38,3.21a1.86,1.86,0,0,0,.38,2.58c2.07,1.51,4.18,2.93,6.35,4.27a1.83,1.83,0,0,0,2.55-.68c.65-1.15,1.31-2.3,2-3.44A1.85,1.85,0,0,0,879,716c-1.94-1.19-3.83-2.47-5.67-3.82A1.86,1.86,0,0,0,870.75,712.57Z" style="fill:#ececec;stroke:#000;stroke-miterlimit:10;stroke-width:1.1619222595982137px"/><path d="M880.41,720.28l-.82,1.56a1.85,1.85,0,0,0,.77,2.5,93,93,0,0,0,8.52,3.86,1.82,1.82,0,0,0,2.38-1.1l.6-1.66a1.83,1.83,0,0,0-1.06-2.34c-2.68-1.06-5.32-2.26-7.9-3.59A1.86,1.86,0,0,0,880.41,720.28Z" style="fill:#ececec;stroke:#000;stroke-miterlimit:10;stroke-width:1.1619222595982137px"/><path d="M860.72,702.92l-3.87,4.85a1.84,1.84,0,0,0,.29,2.59l6.71,5.38a1.83,1.83,0,0,0,2.59-.29l3.87-4.85A1.85,1.85,0,0,0,870,708l-6.72-5.38A1.83,1.83,0,0,0,860.72,702.92Z" style="fill:#ececec;stroke:#000;stroke-miterlimit:10;stroke-width:1.1619222595982137px"/><path d="M885.06,695.6l-2.38,3.21a1.86,1.86,0,0,0,.38,2.58c2.07,1.51,4.18,2.94,6.35,4.27A1.84,1.84,0,0,0,892,705q1-1.72,2-3.45a1.85,1.85,0,0,0-.64-2.5q-2.89-1.78-5.66-3.81A1.85,1.85,0,0,0,885.06,695.6Z" style="fill:#ececec;stroke:#000;stroke-miterlimit:10;stroke-width:1.1619222595982137px"/><path d="M894.72,703.31c-.27.52-.55,1-.82,1.57a1.83,1.83,0,0,0,.77,2.49,93.12,93.12,0,0,0,8.52,3.87,1.83,1.83,0,0,0,2.38-1.11l.6-1.66a1.83,1.83,0,0,0-1.06-2.34c-2.68-1.06-5.32-2.26-7.9-3.58A1.85,1.85,0,0,0,894.72,703.31Z" style="fill:#ececec;stroke:#000;stroke-miterlimit:10;stroke-width:1.1619222595982137px"/><path d="M875,686l-3.87,4.85a1.85,1.85,0,0,0,.29,2.6l6.71,5.37a1.84,1.84,0,0,0,2.59-.29l3.87-4.85a1.85,1.85,0,0,0-.29-2.59l-6.72-5.38A1.84,1.84,0,0,0,875,686Z" style="fill:#ececec;stroke:#000;stroke-miterlimit:10;stroke-width:1.1619222595982137px"/><path d="M880.65,680.74c.36-1.28.72-2.57,1.09-3.85a1.84,1.84,0,0,1,2.27-1.27q3.69,1.07,7.25,2.42a1.83,1.83,0,0,1,1,2.43c-.51,1.22-1,2.44-1.52,3.67a1.84,1.84,0,0,1-2.36,1q-3.18-1.21-6.48-2.16A1.86,1.86,0,0,1,880.65,680.74Z" style="fill:#ececec;stroke:#000;stroke-miterlimit:10;stroke-width:1.1619222595982137px"/><path d="M892.66,683.68c.24-.54.48-1.07.73-1.61a1.85,1.85,0,0,1,2.45-.91,92.91,92.91,0,0,1,8.25,4.39,1.83,1.83,0,0,1,.59,2.56l-.95,1.49a1.83,1.83,0,0,1-2.5.59c-2.48-1.48-5-2.84-7.66-4.07A1.85,1.85,0,0,1,892.66,683.68Z" style="fill:#ececec;stroke:#000;stroke-miterlimit:10;stroke-width:1.1619222595982137px"/><path d="M868.2,674.59l-.31-.24.44-1.78a1.77,1.77,0,0,1,2.14-1.3l8.54,2.08a1.77,1.77,0,0,1,1.3,2.14L879,680.9a1.76,1.76,0,0,1-1.29,1.3Z" style="fill:#49a1ad;stroke:#000;stroke-miterlimit:10;stroke-width:1.1619222595982137px"/><path d="M699.45,870.62a31.42,31.42,0,1,0-59.68,0Z" style="fill:#ab652b;stroke:#000;stroke-miterlimit:10;stroke-width:1.1619222595982137px"/><path d="M778.27,870.62a31.42,31.42,0,1,0-59.68,0Z" style="fill:#ab652b;stroke:#000;stroke-miterlimit:10;stroke-width:1.1619222595982137px"/><circle cx="1043" cy="185.36" r="76.36" style="fill:#69c5cc"/><circle cx="810.24" cy="35.42" r="35.42" style="fill:#69c5cc"/><circle cx="748.95" cy="35.42" r="20.76" style="fill:#69c5cc"/><path d="M666.53,508.15s-5.43-.56-7.69.64-31.44,35-31.44,35l5.24,4.45Z" style="fill:#fff"/><path d="M618.47,550.16s-49.25,51.77-45.71,60l9.51,7.6s20.45-9.35,39.27-66.68A13.65,13.65,0,0,1,618.47,550.16Z" style="fill:#fff"/><path d="M795.43,621.06a15.37,15.37,0,0,1,7-3.53c4.17-.83,59.77,34.82,59,40.6a15.67,15.67,0,0,1-4.29,9Z" style="fill:#fff"/><path d="M780.59,571.24l4-4.45s9.3,19,12.84,25.28c.61,1.08,4.49,7.26,1.62,4.68l-2.86-2.58Z" style="fill:#fff"/><path d="M803,610.12c0,4.5-5.61,7.48-9.3,7.94a7.82,7.82,0,0,1-8.68-7.94c0-4.49,4-8.14,9-8.14S803,605.63,803,610.12Z" style="fill:#f09a41"/><circle cx="797.68" cy="607.48" r="2.64" style="fill:#e5ac80"/><ellipse cx="735.25" cy="646.19" rx="11.93" ry="10.81" style="fill:#f09a41"/><circle cx="740.15" cy="642.69" r="3.5" style="fill:#e5ac80"/><ellipse cx="671.56" cy="646.48" rx="11.93" ry="10.81" style="fill:#f09a41"/><circle cx="676.46" cy="642.98" r="3.5" style="fill:#e5ac80"/><path d="M774,862c-4.26,5.56-7.81-3.64-16.36-10.19s-18.85-8-14.59-13.53,14.65-4.76,23.19,1.79S778.25,856.45,774,862Z" style="fill:#f09a41"/><path d="M771.76,856.05c-2.35,2.49-3.61-2.17-7.44-5.79s-8.76-4.83-6.41-7.32,7.36-1.57,11.19,2S774.12,853.56,771.76,856.05Z" style="fill:#e5ac80"/><path d="M692.69,853.29c-2.91,3.8-5.33-2.48-11.16-6.94s-12.85-5.44-9.95-9.23,10-3.25,15.82,1.22S695.6,849.5,692.69,853.29Z" style="fill:#f09a41"/><path d="M691.17,849.23c-1.6,1.69-2.46-1.48-5.07-4s-6-3.29-4.38-5,5-1.07,7.64,1.39S692.78,847.53,691.17,849.23Z" style="fill:#e5ac80"/><path d="M678.59,509s-3.62,4.93,7.58,9.62,25.08,7.85,26.82,9.44,1,5.81,3.15,9.1,12.2,7.74,17.83,9.15,9.86-5,12.21-3.79,36,12.1,36,12.1S711.45,511.81,678.59,509Z" style="fill:#4393a1"/><path d="M729.36,541.5l-2.77-1.29a11,11,0,0,1-5.35-14.62l10.58-22.8,22.74,10.58L744,536.15A11,11,0,0,1,729.36,541.5Z" style="fill:#cbcbcb;stroke:#000;stroke-miterlimit:10;stroke-width:1.1619222595982137px"/><path d="M764.71,538.36c-2.39-.51-4.49-1.75-6.72-2.66-7-2.84-13.89-5.82-20.81-8.76-5.26-2.24-10.48-4.53-15.73-6.77-6-2.53-11.94-5-17.89-7.54-3.95-1.68-7.86-3.44-11.79-5.17,1.14-4.14,2.26-8.28,3.42-12.41,2-7.11,4-14.22,6-21.33q3.24-11.54,6.45-23.09L712,435.24c1.63,0,2.76,1.12,4.13,1.71,8.27,3.55,16.59,7,24.88,10.5q11.26,4.77,22.51,9.58l25.54,10.86,11.09,4.71c.72.3,1.19.49.58,1.52-1.76,3-3.22,6.12-5,9.05-1.13,1.83-1.66,4.1-3.65,5.35l-2.36-1.11a16.18,16.18,0,0,0-15.63.86,16,16,0,0,0-7.71,10.39A16.84,16.84,0,0,0,768.68,512c1.86,2.94,4.61,4.68,7.43,6.44a2.47,2.47,0,0,0-.89,1.84c-2.45-1-4.93-1.91-7.36-3-6.78-2.89-13.52-5.84-20.3-8.73-6.28-2.69-12.59-5.32-18.88-8-5-2.11-10-4.2-15-6.36-1.2-.53-1.7-.11-2.14.93-1.4,3.37-2.84,6.73-4.27,10.09-.25.57-.31.86.47,1.18,4,1.62,7.85,3.38,11.79,5.05,6,2.55,12,5.05,18,7.59,5.3,2.24,10.6,4.46,15.88,6.76,4.85,2.1,9.81,3.93,14.55,6.28A30.65,30.65,0,0,1,764.71,538.36Zm-27.88-72c-9.42-.43-17.34,8.07-17.07,17.34A17,17,0,0,0,737.45,500a16.82,16.82,0,0,0-.62-33.63Z" style="fill:#eaeaea"/><path d="M809.82,468.68q-9-3.8-18-7.59l-17.65-7.49-16-6.76q-9-3.78-18-7.56c-5.24-2.22-10.45-4.46-15.68-6.7l-11.81-5,18.83-15.68c.59-.49,1.15-1,1.75-1.47a2,2,0,0,1,2.17-.32q12.51,5.37,25.05,10.67,12,5.08,24.09,10.1c0,.22.22.49.15.66-1.14,2.62-2.3,5.23-3.45,7.84-2.25-.48-4.44-1.26-6.79-1.09-1.16.08-2.25.41-2.66,1.55s.31,2,1,2.76a18.67,18.67,0,0,0,7.19,4.71,17.85,17.85,0,0,0,8,1.56c2.26-.17,3.06-1.57,2-3.46-1.33-2.31-3.59-3.47-5.85-4.61.8-2.95,2.37-5.6,3.35-8.49,6.32,2.66,12.64,5.3,18.95,8,1.77.74,3.51,1.55,5.26,2.33a18.54,18.54,0,0,0-.63,5.76C810.89,455.14,810.28,461.9,809.82,468.68Z" style="fill:#cacaca"/><path d="M792.05,488.52c2-1.25,2.52-3.52,3.65-5.35,1.81-2.93,3.27-6.08,5-9.05.61-1,.14-1.22-.58-1.52l-11.09-4.71L763.52,457q-11.25-4.78-22.51-9.58c-8.29-3.5-16.61-6.95-24.88-10.5-1.37-.59-2.5-1.73-4.13-1.71-.48-.72-1.42-.62-2-1.14.14-.52.29-1,.41-1.56,1.05-4.53.67-3.41,4.2-2,8.7,3.52,17.31,7.28,25.94,11,7.58,3.24,15.15,6.52,22.73,9.76S778.41,457.76,786,461l25.22,10.76q11.41,4.86,22.84,9.69c1.37.59,2.74,1.2,4.11,1.78.74.32,1,.63.53,1.5q-4.26,7.3-8.4,14.67c-4.78,8.46-9.51,17-14.31,25.4s-9.52,16.59-14.28,24.89c-.24.4-.49.8-.71,1.22-1.3,2.56-1.75,2.67-4.4,1a6.33,6.33,0,0,0,3.36-3.42c1.15-2.53,2.45-5,3.79-7.44,2.49-4.57,5.08-9.09,7.57-13.66,2.63-4.83,5.18-9.71,7.78-14.56s5.14-9.47,7.65-14.24a46.85,46.85,0,0,0,4.07-9.32,3.29,3.29,0,0,0-.87-3.3c-1.73-2-4.36-2.34-6.51-3.55-.7-.38-.92.26-1.23.72-.92,1.37-1.49,2.92-2.27,4.36-1.48,2.7-3.09,5.32-4.56,8-2.89,5.31-5.69,10.67-8.59,16-2.32,4.26-4.77,8.46-7.1,12.72q-4.7,8.6-9.3,17.24c-1.13,2.13-2.61,4.08-3.29,6.43l-12-4.92c-.64-.26-1.26-.58-1.89-.88.61-.14.74-.73,1-1.16,1.11-1.53,1.64-3.43,3-4.82,2.8,1.12,5.63,2.19,8.4,3.39.85.36,1.27.39,1.65-.55,1.38-3.38,2.79-6.75,4.28-10.08.55-1.23.08-1.54-1-2-2.18-.84-4.27-1.89-6.4-2.85a3,3,0,0,1,.59-1.86,4.83,4.83,0,0,0,1.2-2.75,10.42,10.42,0,0,1,1.3-.53c5.6-1.5,9.25-5.11,11.32-10.43,1.47-3.78,1.17-7.62.21-11.47a58.1,58.1,0,0,0,3.33-5.78c2.33-4.1,4.7-8.17,7-12.3,1.18-2.13,1-2.05-1.2-3.13-1.55-.75-2.32-.55-3.13,1-2.75,5.26-5.63,10.45-8.46,15.67Z" style="fill:#fcfcfc"/><path d="M787.09,547.89c.68-2.35,2.16-4.3,3.29-6.43q4.62-8.64,9.3-17.24c2.33-4.26,4.78-8.46,7.1-12.72,2.9-5.31,5.7-10.67,8.59-16,1.47-2.7,3.08-5.32,4.56-8,.78-1.44,1.35-3,2.27-4.36.31-.46.53-1.1,1.23-.72,2.15,1.21,4.78,1.52,6.51,3.55a3.29,3.29,0,0,1,.87,3.3,46.85,46.85,0,0,1-4.07,9.32c-2.51,4.77-5.1,9.49-7.65,14.24s-5.15,9.73-7.78,14.56c-2.49,4.57-5.08,9.09-7.57,13.66-1.34,2.44-2.64,4.91-3.79,7.44a6.33,6.33,0,0,1-3.36,3.42A91,91,0,0,1,787.09,547.89Z" style="fill:#eaeaea"/><path d="M822.73,447.24q7,2.89,14,5.77a.93.93,0,0,1,.64.94q.55,8.15,1.16,16.27.29,3.79.6,7.58a12.15,12.15,0,0,1,0,3.45l-13.47-6Z" style="fill:#cacaca"/><path d="M822.73,447.24l2.87,28c-2.22-.41-4.13-1.63-6.19-2.43-3.25-1.26-6.4-2.76-9.59-4.16.46-6.78,1.07-13.54,1.21-20.35a18.54,18.54,0,0,1,.63-5.76c3.18,1,6.09,2.58,9.18,3.76C821.49,446.58,822.1,446.94,822.73,447.24Z" style="fill:#e1e1e1"/><path d="M802.93,415.27c2.11,4.92-1.17,12-6.26,13.43-2.58-.8-5.23-1.33-7.55-2.88-3.64-2.43-6.18-5.84-8.72-9.27a11.5,11.5,0,0,1,13.48-9.8,11.37,11.37,0,0,1,8.62,6.64,2.8,2.8,0,0,1,.43,1.86,13.56,13.56,0,0,0-1.06-1.43,2.85,2.85,0,0,0-3.65-.62,2.89,2.89,0,0,0-1.38,3.56,2.76,2.76,0,0,0,3.18,2.07C802.16,418.64,802.61,417,802.93,415.27Z" style="fill:#04fcf1"/><path d="M700.18,454.35a3.33,3.33,0,0,0-1.88,4c-2.13,3.75-3.5,7.85-5.22,11.79a4.38,4.38,0,0,1-3.48,2.75,16.71,16.71,0,0,1-2,.19,12.83,12.83,0,0,1-1.54-9c.85-5.86,4.19-9.92,9.44-12.43a11.94,11.94,0,0,1,5.76-1.16C701.25,451.91,699.9,452.9,700.18,454.35Z" style="fill:#eee"/><path d="M710,434.1c.6.52,1.54.42,2,1.14l-4.32,15.39q-3.23,11.55-6.45,23.09c-2,7.11-4,14.22-6,21.33-1.16,4.13-2.28,8.27-3.42,12.41-2.37-.6-2.39-.63-1.79-2.76q5-17.49,9.95-35c2.54-8.93,5-17.86,7.56-26.79Z" style="fill:#8e8e8d"/><path d="M828.56,512c.72-.46.87-1.31,1.36-1.92.38,1.38.27,2.84.81,4.23,1.35,3.41,1.23,7.14,2.26,10.63a12.94,12.94,0,0,1-8.79,5.83c-.09-.34-.06-.85-.29-1-1.67-1.2-1.35-2.68-.68-4.23.87-2,1.84-4,2.6-6C826.74,517,828.29,514.7,828.56,512Z" style="fill:#eee"/><path d="M828.56,512c-.27,2.73-1.82,5-2.73,7.5-.76,2-1.73,4-2.6,6-.67,1.55-1,3,.68,4.23.23.16.2.67.29,1-2.81,1.18-5.66.59-8.51.19-1.22-.17-1.18-.94-.71-1.76.76-1.35,1.58-2.66,2.38-4,2,.92,3.25.74,4.2-.59a2.94,2.94,0,0,0-.82-4c-.72-.6-.27-1-.09-1.31,1.23-2.25,2.54-4.46,3.79-6.7.35-.63.69-1.08,1.44-.51C826.79,512.75,827.67,512.24,828.56,512Z" style="fill:#b3b3b3"/><path d="M687.6,473.11a16.71,16.71,0,0,0,2-.19,4.38,4.38,0,0,0,3.48-2.75c1.72-3.94,3.09-8,5.22-11.79.72.49,1.1,1.42,2.1,1.57.62.09.5.5.37,1-.66,2.31-1.19,4.65-2,6.94-.23.68-.39.62-.91.53a2.8,2.8,0,0,0-3.38,2,2.56,2.56,0,0,0,1.54,3.39c1,.49.93,1.11.69,1.9-.3,1-.69,1.93-.94,2.92-.62,2.47-.64,2.53-2.67,1.13A14,14,0,0,1,687.6,473.11Z" style="fill:#b3b3b3"/><path d="M833,524.91c-1-3.49-.91-7.22-2.26-10.63-.54-1.39-.43-2.85-.81-4.23a.73.73,0,0,1,.07-.29l0-.41L830,509c.51,0,.68-.33.77-.75.56,0,.77-.31.68-.84l.09-1a.7.7,0,0,0,.33-.76l.09-.72a14.94,14.94,0,0,1,4.23,12.12A12.51,12.51,0,0,1,833,524.91Z" style="fill:#fcfcfc"/><path d="M780.4,416.55c2.54,3.43,5.08,6.84,8.72,9.27,2.32,1.55,5,2.08,7.55,2.88-1.74,1.72-4,1.2-6.06,1.29a9.19,9.19,0,0,1-2.41-.54l-2.18-.84a12.3,12.3,0,0,1-5.88-11.25C780.14,417.08,780.08,416.75,780.4,416.55Z" style="fill:#049da6"/><path d="M786,428.61l2.18.84c.32,1.09-.87,1.79-.75,2.82-1,2.89-2.55,5.54-3.35,8.49-.81.85-.9,2.05-1.44,3-.43.78-.74,1.27-1.77.74s-1.46-.92-.9-2,.86-2.09,1.28-3.14c1.15-2.61,2.31-5.22,3.45-7.84.07-.17-.1-.44-.15-.66C785.44,430.35,785.54,429.35,786,428.61Z" style="fill:#100e0c"/><path d="M764.71,538.36a30.65,30.65,0,0,0,3.32-6.18l5.13,2.1a2.48,2.48,0,0,1-.51,1.51,19.17,19.17,0,0,0-2.43,5Z" style="fill:#fcfcfc"/><path d="M802.93,415.27c-.32,1.72-.77,3.37-2.91,3.56a2.76,2.76,0,0,1-3.18-2.07,2.89,2.89,0,0,1,1.38-3.56,2.85,2.85,0,0,1,3.65.62,13.56,13.56,0,0,1,1.06,1.43Z" style="fill:#fcfcfc"/><path d="M770.22,540.82a19.17,19.17,0,0,1,2.43-5,2.48,2.48,0,0,0,.51-1.51,17.86,17.86,0,0,1,4.06,1.83c-1.33,1.39-1.86,3.29-3,4.82-.31.43-.44,1-1,1.16Z" style="fill:#eaeaea"/><path d="M831.91,504.93l-.09.72a.67.67,0,0,0-.33.76l-.09,1a.77.77,0,0,0-.68.84c-.09.42-.26.76-.77.75-.53-.62-.73-1.49-1.48-1.92s-.58-.78-.1-1.28a2.85,2.85,0,0,0,.53-.93c.29-.72.67-1.75,1.38-1.63A2.23,2.23,0,0,1,831.91,504.93Z" style="fill:#b3b3b3"/><path d="M700.18,454.35c-.28-1.45,1.07-2.44,1.08-3.81,2.28-.29,2.21-.1,2,1.91C703,454.74,701.63,454.42,700.18,454.35Z" style="fill:#b3b3b3"/><path d="M835.74,497.28c0,.66-.68.9-1.38,1s-1.31-.43-1.15-1,.58-1.6,1.37-1.66C835.18,495.58,835.74,496.18,835.74,497.28Z" style="fill:#f49706"/><path d="M705.4,443.72a1.48,1.48,0,0,1-1.38-1.44c-.1-.88.51-1.29,1.29-1.44.59-.12,1,.17.94.77A3.4,3.4,0,0,1,705.4,443.72Z" style="fill:#f49706"/><path d="M697.92,471.15c0,.51,0,1.45-.91,1.44a1.31,1.31,0,0,1-1.19-1.52,1.38,1.38,0,0,1,1.5-1.29C698.14,469.83,698.06,470.39,697.92,471.15Z" style="fill:#f49706"/><path d="M828.31,509.36c-.12.79-.22,1.46-1.13,1.49-.61,0-1.36-.21-1.15-.77s.35-1.82,1.29-1.94C828,508.05,828.09,508.92,828.31,509.36Z" style="fill:#f49706"/><path d="M701.51,458.6c-1.22-.09-2-.56-1.68-2,.2-.84.9-.92,1.6-.85.94.1.56.7.43,1.21S701.63,458.07,701.51,458.6Z" style="fill:#f49706"/><path d="M819.64,521.52c.67.2.77.75.83,1.28.11.89-.36,1.32-1.21,1.45-.57.09-1.11-.14-.94-.68A3.65,3.65,0,0,1,819.64,521.52Z" style="fill:#f49706"/><path d="M830,509.35l0,.41C829.68,509.61,829.68,509.47,830,509.35Z" style="fill:#eee"/><path d="M777.22,536.11a17.86,17.86,0,0,0-4.06-1.83l-5.13-2.1c-4.74-2.35-9.7-4.18-14.55-6.28-5.28-2.3-10.58-4.52-15.88-6.76-6-2.54-12-5-18-7.59-3.94-1.67-7.83-3.43-11.79-5.05-.78-.32-.72-.61-.47-1.18,1.43-3.36,2.87-6.72,4.27-10.09.44-1,.94-1.46,2.14-.93,5,2.16,10,4.25,15,6.36,6.29,2.66,12.6,5.29,18.88,8,6.78,2.89,13.52,5.84,20.3,8.73,2.43,1,4.91,2,7.36,3l4.91,2.17c1.35.48,2.53,1.41,4,1.58,2.13,1,4.22,2,6.4,2.85,1.09.41,1.56.72,1,2-1.49,3.33-2.9,6.7-4.28,10.08-.38.94-.8.91-1.65.55C782.85,538.3,780,537.23,777.22,536.11Zm-62-39.56a2.09,2.09,0,0,1-.67-.2c-1.12-.79-1.58-.56-2,.81a64.75,64.75,0,0,1-2.75,6.29c-.92,2-.83,2.23,1.46,2.68-.15,1,.29,1.11,1.06.66l6.71,2.88c.13,1.14.77.77,1.38.45L727,513c.14.77.51.86,1.07.36a55.53,55.53,0,0,0,7,2.91.81.81,0,0,0,.4.86c.35.15.38-.31.6-.44a36.53,36.53,0,0,0,7,2.95c.14.35-.23,1.26.74.66,2.45.55,4.54,2,6.94,2.69.19.55.35,1.17,1.13.59l7,3c.19.87.64.67,1.14.27L766.9,530c.08.78.5.93,1.16.59,2.41.62,4.48,2.13,6.94,2.65-.2,1.13.62.62,1.09.69l7,3c.08.55.25.83.73.26,2.32.9,2.3.89,3.26-1.52.67-1.66,1.42-3.29,2.1-4.95,1-2.3.93-2.3-1.32-3.31-.09-.47-.4-.51-.78-.39l-6.94-3c-.19-.63-.49-.92-1.08-.36l-7-2.91c-.18-.55-.58-.55-1-.42-2.43-1.06-4.74-2.43-7.38-3,.22-1-.34-.47-.69-.37-2.07-1.31-4.42-2-6.63-3-.26-.8-.82-.87-1.51-.63l-6.67-2.91c0-1.17-.7-.23-1.06-.35a60.89,60.89,0,0,0-7.29-3c-.06-.48-.34-.53-.73-.38a61,61,0,0,0-7-2.95c-.05-.79-.46-.75-1-.43-2.34-1-4.54-2.33-7.08-2.82,0-.33.31-.72-.18-.94-.27-.12-.46,0-.55.27l-6.94-2.76C716.09,496.71,715.91,496.11,715.18,496.55Z" style="fill:#070706"/><path d="M792.05,488.52l4.21,4,2.5,4.55c1,3.85,1.26,7.69-.21,11.47-2.07,5.32-5.72,8.93-11.32,10.43a10.42,10.42,0,0,0-1.3.53l-4.7.15-5.12-1.13c-2.82-1.76-5.57-3.5-7.43-6.44a16.84,16.84,0,0,1-2.33-13.38,16,16,0,0,1,7.71-10.39,16.18,16.18,0,0,1,15.63-.86Zm-.87,1.61c0-.34-.29-.47-.58-.62-5.69-3.1-11.23-3-16.65.69-9,6.08-8.73,19,0,25.23a15.23,15.23,0,0,0,12.8,2.23,18.82,18.82,0,0,0,4.19-2c7.56-4.28,9.54-15.56,3.8-22.43C793.76,492,792.84,490.61,791.18,490.13Z" style="fill:#100e0c"/><path d="M736.83,466.39a16.82,16.82,0,0,1,.62,33.63,17,17,0,0,1-17.69-16.29C719.49,474.46,727.41,466,736.83,466.39Zm8.56,4.41c-.09-.49-.52-.69-.87-.87-5.87-3-11.62-3.07-17.09.93a10.93,10.93,0,0,0-4.55,5.81c-3.27,5.41-1.47,14.25,3.68,18a14.44,14.44,0,0,0,12.27,3.69,15.06,15.06,0,0,0,13-16.47C751.39,477.23,749.56,473.34,745.39,470.8Z" style="fill:#100e0c"/><path d="M776.11,518.48l5.12,1.13-1.1,2.88-4.91-2.17A2.47,2.47,0,0,1,776.11,518.48Z" style="fill:#fcfcfc"/><path d="M781.27,439.34c-.42,1.05-.77,2.13-1.28,3.14s0,1.56.9,2,1.34,0,1.77-.74c.54-1,.63-2.18,1.44-3,2.26,1.14,4.52,2.3,5.85,4.61,1.09,1.89.29,3.29-2,3.46a17.85,17.85,0,0,1-8-1.56,18.67,18.67,0,0,1-7.19-4.71c-.7-.77-1.4-1.68-1-2.76s1.5-1.47,2.66-1.55C776.83,438.08,779,438.86,781.27,439.34Z" style="fill:#6f6f6f"/><path d="M798.76,497l-2.5-4.55c2.83-5.22,5.71-10.41,8.46-15.67.81-1.54,1.58-1.74,3.13-1,2.23,1.08,2.38,1,1.2,3.13-2.26,4.13-4.63,8.2-7,12.3A58.1,58.1,0,0,1,798.76,497Z" style="fill:#eaeaea"/><path d="M780.13,522.49l1.1-2.88,4.7-.15a4.83,4.83,0,0,1-1.2,2.75,3,3,0,0,0-.59,1.86C782.66,523.9,781.48,523,780.13,522.49Z" style="fill:#eaeaea"/><path d="M830.72,508.24a.77.77,0,0,1,.68-.84C831.49,507.93,831.28,508.23,830.72,508.24Z" style="fill:#eee"/><path d="M831.49,506.41a.67.67,0,0,1,.33-.76A.7.7,0,0,1,831.49,506.41Z" style="fill:#eee"/><path d="M763.63,517.4c2.64.52,5,1.89,7.38,3-1.21,3.27-2.61,6.46-4.11,9.62L760,526.89a27.93,27.93,0,0,0,1.08-2.66C761.78,521.9,763.38,519.9,763.63,517.4Z" style="fill:#f9fcb1"/><path d="M739.78,507.18a60.89,60.89,0,0,1,7.29,3q-2,4.77-4,9.52a36.53,36.53,0,0,1-7-2.95c.24-.62.51-1.23.73-1.85C737.7,512.28,739.24,509.93,739.78,507.18Z" style="fill:#f9fcb1"/><path d="M719,509.67l-6.71-2.88a56.16,56.16,0,0,1,4.09-9.62l6.94,2.76C721.75,503.14,720.73,506.57,719,509.67Z" style="fill:#f9fcb1"/><path d="M780.11,524l6.94,3c-.33.76-.7,1.51-1,2.29-.91,2.58-2.41,4.92-3,7.62l-7-3C777,530.43,778.65,527.28,780.11,524Z" style="fill:#f9fcb1"/><path d="M756.31,514.05c2.21,1,4.56,1.67,6.63,3a88,88,0,0,1-4.1,9.59l-7-3c.38-.88.69-1.8,1.14-2.64C754.23,518.73,754.74,516.13,756.31,514.05Z" style="fill:#f9fcb1"/><path d="M772,520.77l7,2.91q-2,4.77-4,9.53c-2.46-.52-4.53-2-6.94-2.65C768.94,527.11,770.63,524,772,520.77Z" style="fill:#f9fcb1"/><path d="M735,516.31a55.53,55.53,0,0,1-7-2.91q2-4.77,4-9.55a61,61,0,0,1,7,2.95Z" style="fill:#f9fcb1"/><path d="M748.13,510.51l6.67,2.91a37.29,37.29,0,0,1-4,9.61c-2.4-.68-4.49-2.14-6.94-2.69Z" style="fill:#f9fcb1"/><path d="M724,500.6c2.54.49,4.74,1.84,7.08,2.82Q729,508.24,727,513l-6.63-2.92c-.27-.48,0-1,.17-1.34C721.63,506,722.82,503.32,724,500.6Z" style="fill:#f9fcb1"/><path d="M787.83,527.4c2.25,1,2.27,1,1.32,3.31-.68,1.66-1.43,3.29-2.1,4.95-1,2.41-.94,2.42-3.26,1.52Z" style="fill:#f9fcb1"/><path d="M711.18,506.13c-2.29-.45-2.38-.66-1.46-2.68a64.75,64.75,0,0,0,2.75-6.29c.46-1.37.92-1.6,2-.81a2.09,2.09,0,0,0,.67.2Z" style="fill:#f9fcb1"/><path d="M775,533.21q2-4.76,4-9.53c.59-.56.89-.27,1.08.36-1.46,3.24-3.12,6.39-4,9.86C775.62,533.83,774.8,534.34,775,533.21Z" style="fill:#6f6f6f"/><path d="M750.75,523a37.29,37.29,0,0,0,4-9.61c.69-.24,1.25-.17,1.51.63-1.57,2.08-2.08,4.68-3.29,6.93-.45.84-.76,1.76-1.14,2.64C751.1,524.2,750.94,523.58,750.75,523Z" style="fill:#6f6f6f"/><path d="M727,513q2.06-4.8,4.12-9.62c.53-.32.94-.36,1,.43q-2,4.77-4,9.55C727.47,513.9,727.1,513.81,727,513Z" style="fill:#6f6f6f"/><path d="M711.18,506.13l4-9.58c.73-.44.91.16,1.15.62a56.16,56.16,0,0,0-4.09,9.62C711.47,507.24,711,507.16,711.18,506.13Z" style="fill:#6f6f6f"/><path d="M724,500.6c-1.18,2.72-2.37,5.44-3.5,8.18-.16.38-.44.86-.17,1.34-.61.32-1.25.69-1.38-.45,1.78-3.1,2.8-6.53,4.32-9.74.09-.28.28-.39.55-.27C724.31,499.88,724.05,500.27,724,500.6Z" style="fill:#6f6f6f"/><path d="M748.13,510.51l-4.32,9.83c-1,.6-.6-.31-.74-.66q2-4.75,4-9.52C747.43,510.28,748.12,509.34,748.13,510.51Z" style="fill:#6f6f6f"/><path d="M772,520.77c-1.41,3.23-3.1,6.34-4,9.79-.66.34-1.08.19-1.16-.59,1.5-3.16,2.9-6.35,4.11-9.62C771.46,520.22,771.86,520.22,772,520.77Z" style="fill:#6f6f6f"/><path d="M787.83,527.4l-4,9.78c-.48.57-.65.29-.73-.26.6-2.7,2.1-5,3-7.62.28-.78.65-1.53,1-2.29C787.43,526.89,787.74,526.93,787.83,527.4Z" style="fill:#6f6f6f"/><path d="M735,516.31l4-9.51c.39-.15.67-.1.73.38-.54,2.75-2.08,5.1-3,7.7-.22.62-.49,1.23-.73,1.85-.22.13-.25.59-.6.44A.81.81,0,0,1,735,516.31Z" style="fill:#6f6f6f"/><path d="M758.84,526.62a88,88,0,0,0,4.1-9.59c.35-.1.91-.59.69.37-.25,2.5-1.85,4.5-2.57,6.83a27.93,27.93,0,0,1-1.08,2.66C759.48,527.29,759,527.49,758.84,526.62Z" style="fill:#6f6f6f"/><path d="M786.78,517.66a15.23,15.23,0,0,1-12.8-2.23c-8.76-6.19-9.06-19.15,0-25.23,5.42-3.65,11-3.79,16.65-.69.29.15.53.28.58.62a3.22,3.22,0,0,0-.93,1.59c-.83.08-1.21-.71-1.85-1a13.24,13.24,0,0,0-18.48,9.06,13.08,13.08,0,0,0,6.32,14.14c3.41,1.94,6.91,1.94,10.55,1.25Z" style="fill:#f49706"/><path d="M786.78,517.66c0-.83,0-1.66,0-2.48,1.64-1,3.52-1.63,4.94-3a13.31,13.31,0,0,0,2.48-15.75,19.69,19.69,0,0,0-4-4.69,3.22,3.22,0,0,1,.93-1.59c1.66.48,2.58,1.88,3.59,3.08,5.74,6.87,3.76,18.15-3.8,22.43A18.82,18.82,0,0,1,786.78,517.66Z" style="fill:#f9fcb1"/><path d="M751.85,481.93a15.06,15.06,0,0,1-13,16.47,14.44,14.44,0,0,1-12.27-3.69l.39-1.88c1.79.78,3.12,2.28,5,2.95a13.29,13.29,0,0,0,16.63-6.94c1.5-3.36,1.24-6.69.33-10.09C750.19,479.54,750.51,481.21,751.85,481.93Z" style="fill:#f49706"/><path d="M722.88,476.67a10.93,10.93,0,0,1,4.55-5.81c5.47-4,11.22-3.91,17.09-.93.35.18.78.38.87.87-.79.3-1.39-.6-2.26-.36,0,.9.79,1.46.94,2.25a19.52,19.52,0,0,0-2.23-1.14,13.07,13.07,0,0,0-7.91-.83,13.58,13.58,0,0,0-9.91,8.92A10.93,10.93,0,0,1,722.88,476.67Z" style="fill:#f49706"/><path d="M722.88,476.67a10.93,10.93,0,0,0,1.14,3A14.24,14.24,0,0,0,725.14,490c.51,1,1.66,1.62,1.81,2.85l-.39,1.88C721.41,490.92,719.61,482.08,722.88,476.67Z" style="fill:#a55f06"/><path d="M744.07,472.69c-.15-.79-.93-1.35-.94-2.25.87-.24,1.47.66,2.26.36,4.17,2.54,6,6.43,6.46,11.13-1.34-.72-1.66-2.39-2.93-3.18A15,15,0,0,0,744.07,472.69Z" style="fill:#f9fcb1"/><path d="M790.25,491.72a19.69,19.69,0,0,1,4,4.69,13.31,13.31,0,0,1-2.48,15.75c-1.42,1.39-3.3,2-4.94,3-3.64.69-7.14.69-10.55-1.25a13.08,13.08,0,0,1-6.32-14.14,13.24,13.24,0,0,1,18.48-9.06C789,491,789.42,491.8,790.25,491.72Zm-7.41-.7c-7.25.08-11.79,5.41-11.75,11.49,0,7.11,5.16,11.89,11.92,11.68s11.24-5,11.36-11.78C794.48,496.25,788.9,490.93,782.84,491Z" style="fill:#100e0c"/><path d="M744.07,472.69a15,15,0,0,1,4.85,6.06c.91,3.4,1.17,6.73-.33,10.09A13.29,13.29,0,0,1,732,495.78c-1.89-.67-3.22-2.17-5-2.95-.15-1.23-1.3-1.82-1.81-2.85A14.24,14.24,0,0,1,724,479.64a13.58,13.58,0,0,1,9.91-8.92,13.07,13.07,0,0,1,7.91.83A19.52,19.52,0,0,1,744.07,472.69Zm-7.65,22.4a11.59,11.59,0,1,0,.27-23.17c-6.63.06-11.66,4.7-11.71,11.59A11.33,11.33,0,0,0,736.42,495.09Z" style="fill:#100e0c"/><path d="M782.84,491c6.06-.09,11.64,5.23,11.53,11.39-.12,6.79-4.65,11.57-11.36,11.78s-11.88-4.57-11.92-11.68C771.05,496.43,775.59,491.1,782.84,491Zm5.88,14.68c2.7,0,4.59-1.77,4.6-4.26,0-2.83-1.93-5.12-4.28-5.07-3.85.09-5.12,2.19-5.19,5.07A4.5,4.5,0,0,0,788.72,505.7Z" style="fill:#04fcf1"/><path d="M736.42,495.09A11.33,11.33,0,0,1,725,483.51c0-6.89,5.08-11.53,11.71-11.59a11.59,11.59,0,1,1-.27,23.17Zm10-13.82a4.74,4.74,0,0,0-4.51-4.86,4.86,4.86,0,0,0-5,4.85,4.79,4.79,0,0,0,5,4.65A4.74,4.74,0,0,0,746.39,481.27Z" style="fill:#04fcf1"/><path d="M788.72,505.7a4.5,4.5,0,0,1-4.87-4.26c.07-2.88,1.34-5,5.19-5.07,2.35-.05,4.3,2.24,4.28,5.07C793.31,503.93,791.42,505.68,788.72,505.7Z" style="fill:#fcfcfc"/><path d="M746.39,481.27a4.74,4.74,0,0,1-4.53,4.64,4.79,4.79,0,0,1-5-4.65,4.86,4.86,0,0,1,5-4.85A4.74,4.74,0,0,1,746.39,481.27Z" style="fill:#fcfcfc"/><circle cx="791.89" cy="418.04" r="11.95" style="fill:none;stroke:#000;stroke-miterlimit:10"/><path d="M679.7,514.59C677,511,673,581.85,673,581.85a.73.73,0,0,0,.26.77l7,5.44a.75.75,0,0,0,1.19-.46L693.57,522a.75.75,0,0,0-.49-.85S681.22,516.6,679.7,514.59Z" style="fill:#69c5cc"/><path d="M750.59,758.39s5.07-1.49,9.15,1.6c0,0,9.16,65.14,10.07,69.64s1.6-2.6-14.41-2.83Z" style="fill:#69c5cc"/><path d="M666.66,758.07s5.06-1.49,9.14,1.6c0,0,9.16,65.15,10.08,69.64s1.6-2.59-14.42-2.82Z" style="fill:#69c5cc"/><circle cx="123.22" cy="772.76" r="14.04" style="fill:#69c5cc"/><circle cx="1375.68" cy="467.42" r="6.94" style="fill:#69c5cc"/><circle cx="113.34" cy="292.18" r="8.17" style="fill:#69c5cc"/><circle cx="116.76" cy="255.96" r="3.41" style="fill:#69c5cc"/><circle cx="302.25" cy="42.75" r="28.09" style="fill:#69c5cc"/><circle cx="311.77" cy="9.51" r="9.51" style="fill:#69c5cc"/><circle cx="1245.62" cy="390.2" r="5.7" style="fill:#69c5cc"/><circle cx="1209.71" cy="247.85" r="6.3" style="fill:#69c5cc"/><circle cx="18.41" cy="551.09" r="18.41" style="fill:#69c5cc"/><circle cx="65.53" cy="531.51" r="28.72" style="fill:#69c5cc"/><circle cx="1366.72" cy="386.16" r="30.95" style="fill:#69c5cc"/><circle cx="139.13" cy="746.39" r="1.87" style="fill:#69c5cc"/><polygon points="712.68 427.54 734.13 409.88 760.48 420.74 836.71 453.01 839.07 481.25 712.68 427.54" style="fill:none;stroke:#070706;stroke-miterlimit:10"/><polygon points="712 428.7 689.65 506.72 799.56 553.02 839.07 481.25 712 428.7" style="fill:none;stroke:#070706;stroke-miterlimit:10;stroke-width:2px"/><path d="M829.88,503.22l-15.2,26.45s-.85,1.08,2,1.41,14.47,1.6,18.64-10.11A14.84,14.84,0,0,0,829.88,503.22Z" style="fill:none;stroke:#000;stroke-miterlimit:10"/><path d="M827.48,507.4s2.19,1.42,1.48,2.65a2.51,2.51,0,0,1-3.48.83" style="fill:none;stroke:#000;stroke-miterlimit:10"/><path d="M819.79,520.77s2.43,1.58,1.13,3.27-3.14.23-3.14.23" style="fill:none;stroke:#000;stroke-miterlimit:10"/><path d="M695.24,480.36s8.18-26.39,8.11-29.26-15,1.2-16.8,10.72S688.9,479.48,695.24,480.36Z" style="fill:none;stroke:#000;stroke-miterlimit:10"/><path d="M701.26,460s-2.72-1.3-2.24-3.29,3.62-1.92,3.62-1.92" style="fill:none;stroke:#000;stroke-miterlimit:10"/><path d="M696.91,473.71s-2.56-1.72-1.69-3.45,3.47-1.31,3.47-1.31" style="fill:none;stroke:#000;stroke-miterlimit:10"/></g></g></svg>